<?xml version="1.0" encoding="UTF-8"?>
<svg version="1.1" xmlns="http://www.w3.org/2000/svg" width="2597" height="1024">
<path d="M0 0 C3.39427951 0.73982366 4.8758378 1.55491179 7.25 4.125 C10.26691415 7.36594243 13.52765756 10.22874102 16.86816406 13.12646484 C20.23764437 16.08768701 23.49071327 19.16861752 26.75 22.25 C32.48814337 27.65236904 38.25935409 33.01259914 44.078125 38.328125 C47.20643985 41.18877655 50.3236772 44.0610975 53.4375 46.9375 C53.97785889 47.43660889 54.51821777 47.93571777 55.07495117 48.44995117 C56.16964892 49.46120612 57.26429396 50.47251812 58.35888672 51.48388672 C61.07177586 53.99014104 63.78594859 56.49500446 66.5 59 C67.58333957 59.99999324 68.66667291 60.99999324 69.75 62 C70.554375 62.7425 70.554375 62.7425 71.375 63.5 C73 65 74.625 66.5 76.25 68 C76.78608887 68.49483887 77.32217773 68.98967773 77.87451172 69.49951172 C78.95952256 70.50108526 80.04448338 71.502713 81.12939453 72.50439453 C83.81165757 74.98076272 86.49473934 77.45623064 89.1796875 79.9296875 C94.99300099 85.28712467 100.78766143 90.66359498 106.5625 96.0625 C117.5436926 106.3367683 117.5436926 106.3367683 128.71875 116.3984375 C133.20905052 120.36126296 137.38501208 124.34983413 141.2421875 128.93359375 C143.1594734 131.18746984 145.17062201 133.33492847 147.1875 135.5 C180.30070464 172.32368258 200.3097814 219.20929853 207.875 267.8125 C208.03059387 268.81144287 208.03059387 268.81144287 208.18933105 269.83056641 C210.4412222 284.52750253 211.2389903 299.0335484 211.25 313.875 C211.25067474 314.70159119 211.25134949 315.52818237 211.25204468 316.37982178 C211.21879574 342.29845993 208.19854967 367.60222157 203 393 C202.78504883 394.05928711 202.57009766 395.11857422 202.34863281 396.20996094 C191.08073433 450.6630488 168.65321308 500.95813058 143.7878418 550.40551758 C139.78741548 558.37584175 135.91631168 566.4008087 132.09350586 574.45751953 C128.32985172 582.36671698 124.41747584 590.19611628 120.48022461 598.02001953 C117.07232288 604.80940087 113.75763796 611.63736787 110.5 618.5 C106.27959304 627.3908285 101.9178233 636.20218579 97.49365234 644.99316406 C93.50283592 652.94364906 89.63579345 660.94859576 85.828125 668.98828125 C83.54801028 673.79634925 81.22377769 678.57759781 78.83935547 683.33496094 C78.30567352 684.40035095 77.77199158 685.46574097 77.22213745 686.56341553 C76.61717941 687.76952484 76.61717941 687.76952484 76 689 C76.90881166 689.00895228 76.90881166 689.00895228 77.83598316 689.01808542 C113.85314583 689.3729683 149.87026772 689.73174401 185.88734209 690.09548148 C190.22502465 690.13928454 194.56270754 690.18305552 198.90039062 690.22680664 C199.76383945 690.23551617 200.62728828 690.24422571 201.51690222 690.25319917 C215.44438184 690.39360818 229.37188592 690.53142606 243.29940103 690.66826343 C257.62133191 690.80903447 271.94323237 690.9526432 286.26510918 691.09881264 C295.08169944 691.18870775 303.89830539 691.2764657 312.71494515 691.36136986 C318.78478152 691.42003576 324.85458591 691.48149131 330.92437343 691.545008 C334.41103842 691.58141559 337.89770381 691.61672123 341.38441277 691.64866829 C354.67554856 691.77272686 367.96033335 691.96430973 381.24465942 692.42274475 C382.28917326 692.45526917 383.33368709 692.48779359 384.40985286 692.52130359 C401.09068934 693.16174482 418.80046645 697.01719069 431.31640625 708.9140625 C438.44088656 717.74114483 440.97327577 727.8708032 440 739 C438.06657246 751.179362 434.03889827 761.31644734 428 772 C427.44280273 772.98774414 426.88560547 773.97548828 426.31152344 774.99316406 C419.85927138 786.37568577 413.26031582 797.67199817 406.48828125 808.8671875 C403.03949416 814.57745024 399.64901921 820.32253396 396.25 826.0625 C395.90284943 826.64861053 395.55569885 827.23472107 395.19802856 827.83859253 C390.10426206 836.4390925 385.01764553 845.04381199 379.93457031 853.65063477 C375.28732129 861.518008 370.62878743 869.37867738 365.96923828 877.23876953 C361.47370889 884.8224393 356.98309777 892.40897498 352.5 900 C344.67123639 913.25531309 336.81922484 926.49684683 328.96887207 939.73937988 C321.80598184 951.82235512 314.64330819 963.9054336 307.5 976 C302.87761386 983.82591208 298.25021241 991.64884279 293.61767578 999.46875 C292.59650107 1001.19260254 291.57558975 1002.91661109 290.5546875 1004.640625 C289.60142578 1006.249375 289.60142578 1006.249375 288.62890625 1007.890625 C288.07275635 1008.82938477 287.51660645 1009.76814453 286.94360352 1010.73535156 C286.30221436 1011.81268555 285.6608252 1012.89001953 285 1014 C284.66282613 1014.81521842 284.32565226 1015.63043684 283.97826099 1016.47035885 C282.59070565 1019.4448678 281.28342422 1021.63048216 279 1024 C274.48526654 1025.44994269 270.01650697 1025.193738 265.33056641 1025.02270508 C263.8942739 1025.00773966 262.45792849 1024.99729857 261.02157211 1024.99093437 C257.86483341 1024.96693569 254.71083177 1024.91042143 251.55503464 1024.82983971 C246.3347416 1024.69671432 241.11482414 1024.63327397 235.89321899 1024.57685852 C227.98976402 1024.48468817 220.08739158 1024.35813977 212.18469238 1024.21588135 C198.09095375 1023.96666104 183.99672582 1023.84458551 169.90136719 1023.72802734 C145.97904199 1023.52511583 122.05775947 1023.26982619 98.13634872 1022.98180962 C96.084674 1022.9571222 94.03299917 1022.9324425 91.98132417 1022.90777825 C90.61023951 1022.8912924 89.23915508 1022.87478831 87.86807087 1022.85826601 C76.71414745 1022.72407689 65.56012175 1022.60257319 54.40600125 1022.48604216 C42.75732402 1022.3641628 31.10880723 1022.2316501 19.46036112 1022.08936435 C12.99650487 1022.01062517 6.53267299 1021.93607239 0.06864548 1021.87277794 C-5.95880965 1021.8134758 -11.9859664 1021.74088069 -18.01314926 1021.65852737 C-20.200224 1021.63082723 -22.38736243 1021.60766105 -24.57453918 1021.58974266 C-43.16939431 1021.43280823 -61.71404958 1020.16375329 -79.625 1014.8125 C-80.66076172 1014.51206787 -81.69652344 1014.21163574 -82.76367188 1013.90209961 C-92.78324384 1010.91360389 -102.4338053 1007.20478577 -112 1003 C-112.72590332 1002.68450195 -113.45180664 1002.36900391 -114.19970703 1002.04394531 C-136.53787083 992.24338697 -156.7805771 978.92308314 -176 964 C-177.02351563 963.2059375 -178.04703125 962.411875 -179.1015625 961.59375 C-194.67538535 948.93745069 -210.09761389 933.98741416 -221.80517578 917.65673828 C-223.11334729 915.84283312 -224.45803959 914.05989181 -225.80859375 912.27734375 C-231.69491329 904.46178547 -237.06631489 896.45915271 -242 888 C-242.52907959 887.1020874 -242.52907959 887.1020874 -243.06884766 886.18603516 C-270.48827524 839.48713356 -283.73943745 786.43524004 -283.33618164 732.38330078 C-283.31230923 728.97274496 -283.31569457 725.56296381 -283.32226562 722.15234375 C-283.30438707 702.63671338 -282.39238377 686.22763122 -274.5625 668.25 C-273.89386684 666.6651431 -273.22768262 665.07925119 -272.5637207 663.49243164 C-271.14049096 660.09901994 -269.70507847 656.71114017 -268.26074219 653.32666016 C-265.93871073 647.87337394 -263.67065725 642.39860551 -261.4140625 636.91796875 C-261.02831055 635.98113754 -260.64255859 635.04430634 -260.24511719 634.0790863 C-259.45725668 632.1651377 -258.66953791 630.25113074 -257.88195801 628.33706665 C-256.27664719 624.44014798 -254.66479008 620.54595152 -253.05297852 616.65171814 C-247.94176365 604.30130306 -242.86857659 591.93557723 -237.8125 579.5625 C-237.44073639 578.65278442 -237.06897278 577.74306885 -236.6859436 576.80578613 C-235.20359461 573.17829799 -233.72129215 569.55079085 -232.239151 565.92321777 C-226.81929829 552.66025544 -221.37593798 539.40692876 -215.93511963 526.15255737 C-213.65921227 520.60771605 -211.38575061 515.0618761 -209.11328125 509.515625 C-201.97772756 492.10326826 -194.8156182 474.70219391 -187.625 457.3125 C-179.44762718 437.53591102 -171.33335443 417.73400219 -163.23916626 397.92324829 C-157.81929738 384.6602803 -152.37594229 371.40693927 -146.93511963 358.15255737 C-144.65921227 352.60771605 -142.38575061 347.0618761 -140.11328125 341.515625 C-132.97772756 324.10326826 -125.8156182 306.70219391 -118.625 289.3125 C-110.44762718 269.53591102 -102.33335443 249.73400219 -94.23916626 229.92324829 C-88.81929738 216.6602803 -83.37594229 203.40693927 -77.93511963 190.15255737 C-75.65921227 184.60771605 -73.38575061 179.0618761 -71.11328125 173.515625 C-63.97772756 156.10326826 -56.8156182 138.70219391 -49.625 121.3125 C-42.20194379 103.36019001 -34.82685012 85.38872772 -27.47967529 67.40524292 C-27.11642151 66.51612213 -26.75316772 65.62700134 -26.37890625 64.7109375 C-26.01774719 63.8268924 -25.65658813 62.94284729 -25.28448486 62.03201294 C-22.70478834 55.71938704 -20.11802628 49.40968714 -17.52734375 43.1015625 C-17.16473953 42.21852951 -16.80213531 41.33549652 -16.42854309 40.42570496 C-14.71995161 36.26528218 -13.01055487 32.10519261 -11.30004883 27.94555664 C-7.48077283 18.65103251 -3.71334329 9.33736114 0 0 Z " fill="#3D7DF8" transform="translate(283,0)"/>
<path d="M0 0 C63.06735219 -0.13476531 126.12106321 0.15183037 189.18474507 0.83422244 C197.9454622 0.92859212 206.70623622 1.01643943 215.46703517 1.10283273 C225.17520496 1.19870237 234.88332721 1.29876797 244.59143448 1.40075874 C248.62817321 1.44310987 252.66492193 1.4841045 256.70168686 1.5238781 C292.11138423 1.87560988 292.11138423 1.87560988 308.03173828 2.43188477 C309.02878721 2.46385673 310.02583614 2.49582869 311.05309868 2.52876949 C327.49186071 3.19154684 345.01016226 7.21651445 357.31640625 18.9140625 C364.44088656 27.74114483 366.97327577 37.8708032 366 49 C364.06657246 61.179362 360.03889827 71.31644734 354 82 C353.1642041 83.48161621 353.1642041 83.48161621 352.31152344 84.99316406 C345.85927138 96.37568577 339.26031582 107.67199817 332.48828125 118.8671875 C329.03949416 124.57745024 325.64901921 130.32253396 322.25 136.0625 C321.90284943 136.64861053 321.55569885 137.23472107 321.19802856 137.83859253 C316.10426206 146.4390925 311.01764553 155.04381199 305.93457031 163.65063477 C301.28732129 171.518008 296.62878743 179.37867738 291.96923828 187.23876953 C287.47370889 194.8224393 282.98309777 202.40897498 278.5 210 C270.67123639 223.25531309 262.81922484 236.49684683 254.96887207 249.73937988 C247.80598184 261.82235512 240.64330819 273.9054336 233.5 286 C228.87761386 293.82591208 224.25021241 301.64884279 219.61767578 309.46875 C218.59650107 311.19260254 217.57558975 312.91661109 216.5546875 314.640625 C215.60142578 316.249375 215.60142578 316.249375 214.62890625 317.890625 C214.07275635 318.82938477 213.51660645 319.76814453 212.94360352 320.73535156 C212.30221436 321.81268555 211.6608252 322.89001953 211 324 C210.66282613 324.81521842 210.32565226 325.63043684 209.97826099 326.47035885 C208.59070565 329.4448678 207.28342422 331.63048216 205 334 C200.48526654 335.44994269 196.01650697 335.193738 191.33056641 335.02270508 C189.8942739 335.00773966 188.45792849 334.99729857 187.02157211 334.99093437 C183.86483341 334.96693569 180.71083177 334.91042143 177.55503464 334.82983971 C172.3347416 334.69671432 167.11482414 334.63327397 161.89321899 334.57685852 C153.98976402 334.48468817 146.08739158 334.35813977 138.18469238 334.21588135 C124.09095375 333.96666104 109.99672582 333.84458551 95.90136719 333.72802734 C71.97904199 333.52511583 48.05775947 333.26982619 24.13634872 332.98180962 C22.084674 332.9571222 20.03299917 332.9324425 17.98132417 332.90777825 C16.61023951 332.8912924 15.23915508 332.87478831 13.86807087 332.85826601 C2.71414745 332.72407689 -8.43987825 332.60257319 -19.59399875 332.48604216 C-31.24267598 332.3641628 -42.89119277 332.2316501 -54.53963888 332.08936435 C-61.00349513 332.01062517 -67.46732701 331.93607239 -73.93135452 331.87277794 C-79.95880965 331.8134758 -85.9859664 331.74088069 -92.01314926 331.65852737 C-94.200224 331.63082723 -96.38736243 331.60766105 -98.57453918 331.58974266 C-117.26899576 331.43196762 -138.40465471 331.17531322 -156 324 C-157 321 -157 321 -156.00292969 318.45410156 C-155.48118164 317.4431543 -154.95943359 316.43220703 -154.421875 315.390625 C-153.55429565 313.68749146 -153.55429565 313.68749146 -152.66918945 311.94995117 C-152.35648102 311.34718353 -152.04377258 310.74441589 -151.72158813 310.12338257 C-150.40824514 307.59104013 -149.11685023 305.04774709 -147.82466125 302.50456238 C-147.1657633 301.2078276 -146.50583332 299.91161672 -145.84489441 298.61592102 C-142.90784905 292.85029879 -140.08717822 287.03299261 -137.3125 281.1875 C-136.65399048 279.80340942 -136.65399048 279.80340942 -135.98217773 278.39135742 C-135.10054596 276.53637559 -134.21976327 274.68098997 -133.33984375 272.82519531 C-127.06832218 259.60106128 -120.76783387 246.39749127 -114.17529297 233.33007812 C-107.01339333 219.13124761 -99.9121241 204.91241452 -93.09448242 190.54467773 C-89.81493663 183.65246553 -86.4307839 176.81805649 -83 170 C-76.04168471 156.16319499 -69.3637642 142.19728376 -62.79907227 128.16992188 C-59.06369361 120.19076113 -55.1904081 112.29319464 -51.22363281 104.42675781 C-43.95094742 90.00327561 -36.73958352 75.55930873 -29.80664062 60.96899414 C-27.03135181 55.13430392 -24.19146051 49.33992911 -21.27709961 43.57373047 C-17.04961077 35.16990465 -12.99959139 26.67822386 -8.92260742 18.20068359 C-8.62821274 17.58897308 -8.33381805 16.97726257 -8.03050232 16.34701538 C-7.22381336 14.67044533 -6.41802789 12.99344064 -5.61230469 11.31640625 C-4.38912236 8.80039948 -3.15179368 6.29406625 -1.89923096 3.79272461 C-1.54252949 3.08014999 -1.18582802 2.36757538 -0.81831741 1.63340759 C-0.54827267 1.09438309 -0.27822792 0.55535858 0 0 Z " fill="#2AABF0" transform="translate(357,690)"/>
<path d="M0 0 C15.28643882 14.59740068 22.73033428 33.80292603 23.28540039 54.75073242 C23.63834803 86.48740267 10.96268682 113.4034156 -11 136 C-25.46358953 150.2939997 -43.81583624 161.27105987 -63 168 C-62.319375 168.268125 -61.63875 168.53625 -60.9375 168.8125 C-34.44109987 179.52381069 -11.34308306 194.59729872 0.6015625 221.50830078 C9.23325794 242.34098491 9.35237535 266.29021768 4 288 C3.83371094 288.69109863 3.66742187 289.38219727 3.49609375 290.09423828 C-5.58966335 326.76536347 -30.60973591 356.18756358 -62.3359375 375.83984375 C-98.74007256 397.70002534 -141.34257739 404.69099573 -183.13671875 407.0703125 C-184.28609767 407.13587813 -184.28609767 407.13587813 -185.45869637 407.20276833 C-204.54238064 408.2602299 -223.61359891 408.26750253 -242.72076416 408.19561768 C-246.35711113 408.18475218 -249.99342133 408.18519677 -253.62978172 408.18562126 C-303.91491869 408.18424598 -303.91491869 408.18424598 -327 406 C-323.13466691 379.23145724 -319.00750415 352.50557707 -314.84288335 325.78219628 C-313.90477153 319.76041364 -312.96834664 313.73836864 -312.03172302 307.71635437 C-310.43294463 297.43839083 -308.83320364 287.16057752 -307.23275757 276.88287354 C-304.8409203 261.52301429 -302.4508663 246.16287789 -300.0612592 230.80267155 C-299.22359871 225.41827856 -298.38590616 220.03389056 -297.5482147 214.6495024 C-297.33882102 213.30359111 -297.12942824 211.95767969 -296.92003635 210.61176813 C-295.45468514 201.19292405 -293.98911032 191.77411478 -292.5233574 182.35533321 C-285.47246226 137.04687402 -278.43208524 91.7367867 -271.39841592 46.42565042 C-270.45663939 40.35869706 -269.5147855 34.29175571 -268.57287598 28.224823 C-268.37650477 26.95997549 -268.37650477 26.95997549 -268.17616647 25.66957551 C-267.91589552 23.99314457 -267.65562443 22.31671365 -267.3953532 20.64028275 C-264.92993631 4.76023493 -262.46481765 -11.11985916 -260 -27 C-255.84729442 -27.64924746 -251.69397001 -28.29445101 -247.54052734 -28.93896484 C-246.37291367 -29.12156357 -245.20529999 -29.30416229 -244.00230408 -29.49229431 C-235.22142338 -30.85194569 -226.48525435 -31.92292756 -217.625 -32.625 C-216.91720398 -32.68281647 -216.20940796 -32.74063293 -215.48016357 -32.80020142 C-51.80012307 -46.08248181 -51.80012307 -46.08248181 0 0 Z M-178 27 C-180.34874737 42.0896947 -182.69576938 57.17965705 -185.04072571 72.26994133 C-186.12951793 79.27628052 -187.21887909 86.28253038 -188.30957031 93.28857422 C-189.36132923 100.04454722 -190.41151494 106.80076324 -191.46072388 113.55713272 C-191.86210583 116.14010922 -192.26402287 118.72300262 -192.66647339 121.30581284 C-193.22826698 124.91183 -193.78819015 128.51813282 -194.34765625 132.12451172 C-194.51596954 133.20200684 -194.68428284 134.27950195 -194.85769653 135.38964844 C-195.00915131 136.36843964 -195.16060608 137.34723083 -195.31665039 138.35568237 C-195.44938858 139.20926268 -195.58212677 140.06284298 -195.71888733 140.94228935 C-196.045119 142.98412832 -196.045119 142.98412832 -196 145 C-189.28214103 145.07748808 -182.5644013 145.12918604 -175.84619141 145.16479492 C-173.57140804 145.17967429 -171.29665225 145.19998415 -169.02197266 145.22631836 C-139.39866005 145.5601206 -107.55711551 143.17648163 -84 123 C-83.36191406 122.5153125 -82.72382813 122.030625 -82.06640625 121.53125 C-71.88144647 113.43093111 -65.83354714 102.24157911 -62 90 C-61.75507813 89.2678125 -61.51015625 88.535625 -61.2578125 87.78125 C-57.74693415 75.27675177 -58.95100382 60.02373785 -65.28515625 48.703125 C-66.72899219 46.6278622 -68.25821309 44.83161001 -70 43 C-70.63679688 42.32324219 -71.27359375 41.64648438 -71.9296875 40.94921875 C-85.80551619 27.45459414 -107.1761135 23.85883877 -125.8984375 23.83203125 C-126.73226959 23.82870285 -127.56610168 23.82537445 -128.42520142 23.82194519 C-130.18499201 23.81690866 -131.94479205 23.81453585 -133.70458984 23.81469727 C-136.33317858 23.81253441 -138.96133034 23.79440919 -141.58984375 23.77539062 C-160.03948468 23.48232017 -160.03948468 23.48232017 -178 27 Z M-205 204 C-209.92711418 232.82593885 -214.40319481 261.71752217 -218.82897949 290.62408447 C-219.56856729 295.4507505 -220.31048697 300.27705692 -221.05245018 305.10335827 C-221.93956839 310.87474846 -222.82527603 316.64635487 -223.7109375 322.41796875 C-223.87901287 323.51233938 -224.04708824 324.60671001 -224.22025681 325.73424339 C-224.68978602 328.79300426 -225.15829648 331.85191926 -225.62646484 334.91088867 C-225.76665039 335.82321259 -225.90683594 336.7355365 -226.05126953 337.67550659 C-226.71082063 341.32225469 -226.71082063 341.32225469 -227 345 C-190.16669331 350.68503696 -143.71275628 350.11407921 -112 328 C-108.55405711 325.45458297 -105.24891775 322.79186661 -102 320 C-101.38382813 319.48050781 -100.76765625 318.96101563 -100.1328125 318.42578125 C-86.24764465 305.72437195 -78.72597209 285.77807216 -77.6796875 267.34765625 C-77.11689942 251.08535779 -80.95819256 237.58767542 -92.125 225.3125 C-110.89479847 207.84150455 -138.28221665 203.79244306 -162.91015625 203.90234375 C-164.72222816 203.90446617 -164.72222816 203.90446617 -166.57090759 203.90663147 C-170.40146437 203.91219605 -174.23196111 203.92474197 -178.0625 203.9375 C-180.67122311 203.94251958 -183.27994714 203.94708168 -185.88867188 203.95117188 C-192.25913481 203.96215387 -198.62956311 203.97885646 -205 204 Z " fill="#6556FA" transform="translate(2206,323)"/>
<path d="M0 0 C37.20682587 -0.1141457 74.40675429 0.19890411 111.61106896 0.57285571 C116.4807341 0.62175006 121.3504076 0.66977249 126.22008324 0.7176075 C142.38234859 0.87645022 158.54459375 1.03715299 174.70681474 1.20044827 C175.56773824 1.20914653 176.42866174 1.21784479 177.31567383 1.22680664 C178.17767535 1.23551617 179.03967688 1.24422571 179.92779966 1.25319917 C194.00211536 1.39528674 208.07647191 1.53277487 222.15085254 1.66826343 C236.7002031 1.80837559 251.24951726 1.95183884 265.79880017 2.09881264 C273.92947506 2.18088005 282.06015796 2.2615951 290.19088173 2.33868217 C297.08085963 2.4040321 303.9707978 2.47250386 310.86070428 2.545008 C314.36798924 2.58182804 317.87527271 2.61722219 321.38261032 2.64866829 C325.1886268 2.68356569 328.99454567 2.72402044 332.80049133 2.76585388 C333.89880588 2.77461389 334.99712043 2.78337389 336.12871724 2.79239935 C342.47123049 2.86908586 348.70122928 3.24599216 355 4 C353.71925541 7.27679482 352.34399041 10.46985192 350.8203125 13.640625 C350.38460938 14.54941406 349.94890625 15.45820312 349.5 16.39453125 C349.04625 17.33683594 348.5925 18.27914062 348.125 19.25 C347.70992188 20.11496094 347.29484375 20.97992187 346.8671875 21.87109375 C345.89250689 23.90167834 344.91670993 25.93172723 343.94018555 27.96142578 C342.41670105 31.12971014 340.89894278 34.3007083 339.38208008 37.47216797 C331.64010073 53.64806015 323.7672054 69.75703539 315.85180664 85.84863281 C309.75384062 98.24942794 303.68868894 110.66306573 297.76158142 123.14663696 C294.75357483 129.47178983 291.65089448 135.74489784 288.5 142 C281.75153011 155.42395063 275.27020154 168.97449632 268.9140625 182.58837891 C268.55054688 183.36358887 268.18703125 184.13879883 267.8125 184.9375 C267.53414307 185.53161682 267.25578613 186.12573364 266.96899414 186.737854 C264.81095205 191.32568858 262.58970024 195.87651681 260.3125 200.40625 C259.9699971 201.08948837 259.6274942 201.77272675 259.27461243 202.47666931 C258.18405033 204.65160389 257.09216676 206.82587083 256 209 C243.25775932 234.31422739 243.25775932 234.31422739 230.91088867 259.82250977 C227.01374984 268.03569811 222.93706723 276.15475359 218.85229492 284.27587891 C214.69617247 292.55830854 210.65763496 300.89163769 206.68945312 309.265625 C203.86826259 315.21609241 200.967795 321.12124011 198 327 C191.50480971 325.71395232 185.6172168 323.88992992 179.5 321.375 C178.63125244 321.02091064 177.76250488 320.66682129 176.86743164 320.30200195 C150.76592286 309.5456371 127.28794629 295.30566403 105 278 C103.97648437 277.2059375 102.95296875 276.411875 101.8984375 275.59375 C86.32461465 262.93745069 70.90238611 247.98741416 59.19482422 231.65673828 C57.88665271 229.84283312 56.54196041 228.05989181 55.19140625 226.27734375 C49.30508671 218.46178547 43.93368511 210.45915271 39 202 C38.64728027 201.4013916 38.29456055 200.8027832 37.93115234 200.18603516 C10.49938577 153.46611864 -2.73887475 100.40262591 -2.33618164 46.32836914 C-2.31228579 42.90682828 -2.31569731 39.48605826 -2.32226562 36.06445312 C-2.31669435 33.82291215 -2.30958796 31.58137435 -2.30078125 29.33984375 C-2.30169266 28.34983871 -2.30260406 27.35983368 -2.30354309 26.33982849 C-2.24352426 20.19504843 -1.73161325 14.19289242 -0.98283386 8.10108948 C-0.88868242 7.31906552 -0.79453097 6.53704156 -0.69752645 5.7313199 C-0.46717667 3.82061841 -0.23389048 1.91027131 0 0 Z " fill="#2C54FB" transform="translate(2,686)"/>
<path d="M0 0 C0.86602341 0.00359528 1.73204681 0.00719055 2.62431335 0.01089478 C3.98515549 0.01067574 3.98515549 0.01067574 5.37348938 0.01045227 C8.38737843 0.01115176 11.40120651 0.01894582 14.41508484 0.02676392 C16.49873826 0.02862797 18.58239212 0.03005193 20.66604614 0.03105164 C26.16191305 0.03487783 31.65775372 0.04470897 37.15361023 0.05575562 C42.75704086 0.06596757 48.36047572 0.07054879 53.96391296 0.07559204 C64.96718024 0.08633115 75.97042597 0.10380412 86.97367859 0.12442017 C84.91742219 15.61898737 82.64344053 31.07013496 80.23661804 46.51382446 C79.87146874 48.86682397 79.5065044 51.21985219 79.14170837 53.57290649 C78.36369313 58.58898604 77.58445691 63.60487374 76.80423927 68.62061119 C75.67581182 75.8752629 74.54993153 83.130308 73.42483427 90.38547669 C71.59769285 102.16756948 69.76910597 113.94943738 67.93925476 125.73110962 C67.83029852 126.43263858 67.72134228 127.13416755 67.60908433 127.85695497 C66.50104404 134.99110276 65.39285913 142.12522808 64.28461324 149.25934393 C63.72871977 152.83782021 63.17284746 156.41629976 62.61698914 159.99478149 C62.50725847 160.70119731 62.3975278 161.40761313 62.28447197 162.13543548 C60.45666316 173.90271537 58.63061978 185.67026852 56.80588692 197.43802577 C55.58276208 205.3254 54.35737396 213.2124188 53.13039172 221.09919393 C52.37072734 225.98511193 51.61292801 230.87131783 50.85565186 235.75760651 C50.50329962 238.0285826 50.15016093 240.29943683 49.79619408 242.57016182 C49.31476906 245.6592341 48.83610787 248.74872213 48.3581543 251.83833313 C48.21623557 252.74452461 48.07431684 253.6507161 47.92809755 254.58436793 C47.73754424 255.8217739 47.73754424 255.8217739 47.54314137 257.08417797 C47.43237037 257.79713848 47.32159937 258.51009899 47.20747167 259.24466437 C46.91196698 261.30489074 46.91196698 261.30489074 46.97367859 264.12442017 C57.96035668 252.46606331 57.96035668 252.46606331 68.73539734 240.61270142 C71.45382763 237.59064191 74.21186843 234.60679604 76.97367859 231.62442017 C80.50072021 227.8146409 84.00878214 223.99104374 87.47367859 220.12442017 C91.44897913 215.68821522 95.48575526 211.31187619 99.53227234 206.94082642 C102.53778581 203.6905892 105.51927468 200.42136366 108.47367859 197.12442017 C112.44897913 192.68821522 116.48575526 188.31187619 120.53227234 183.94082642 C123.53778581 180.6905892 126.51927468 177.42136366 129.47367859 174.12442017 C134.4094936 168.6184027 139.43483655 163.19677892 144.4551239 157.76797485 C146.88242665 155.14086841 149.30414716 152.5086829 151.72367859 149.87442017 C152.17968445 149.3800647 152.63569031 148.88570923 153.10551453 148.37637329 C155.1551417 146.1466409 157.16564838 143.89754677 159.12211609 141.58535767 C166.93383508 132.35332613 175.83603453 126.71768322 187.97367859 125.12442017 C190.84105131 125.03792287 193.68280438 124.99772563 196.54936218 125.01089478 C197.38904541 125.01074875 198.22872864 125.01060272 199.09385681 125.01045227 C201.85330338 125.01114572 204.6126814 125.01891143 207.37211609 125.02676392 C209.29168155 125.02863011 211.21124749 125.03005306 213.1308136 125.03105164 C218.17122219 125.03486092 223.21160174 125.0446776 228.2519989 125.05575562 C233.40010689 125.06600394 238.54821958 125.07055658 243.69633484 125.07559204 C253.78879548 125.08630133 263.88123461 125.10335862 273.97367859 125.12442017 C272.44764444 128.34072158 270.87567088 130.41211316 268.28617859 132.87442017 C265.60352449 135.43342488 263.12103173 138.08280959 260.70414734 140.89004517 C256.3648213 145.89342927 251.65993306 150.48962651 246.93461609 155.12442017 C243.65667225 158.36439554 240.48232298 161.63139085 237.47367859 165.12442017 C233.22335047 170.05904147 228.58109521 174.56695405 223.93461609 179.12442017 C220.65667225 182.36439554 217.48232298 185.63139085 214.47367859 189.12442017 C210.22335047 194.05904147 205.58109521 198.56695405 200.93461609 203.12442017 C197.65667225 206.36439554 194.48232298 209.63139085 191.47367859 213.12442017 C187.22335047 218.05904147 182.58109521 222.56695405 177.93461609 227.12442017 C174.65667225 230.36439554 171.48232298 233.63139085 168.47367859 237.12442017 C164.22335047 242.05904147 159.58109521 246.56695405 154.93461609 251.12442017 C151.65667225 254.36439554 148.48232298 257.63139085 145.47367859 261.12442017 C141.22335047 266.05904147 136.58109521 270.56695405 131.93461609 275.12442017 C128.53154897 278.48806952 125.19179337 281.89505139 121.97367859 285.43692017 C121.39617859 286.07242798 120.81867859 286.70793579 120.22367859 287.36270142 C118.68434388 289.17217994 118.68434388 289.17217994 118.97367859 292.12442017 C120.45220764 294.51118849 121.97255779 296.77872746 123.59867859 299.06192017 C124.08940857 299.7628479 124.58013855 300.46377563 125.08573914 301.1859436 C126.15169545 302.70707409 127.22075645 304.22603252 128.29252625 305.74307251 C129.97896483 308.13190811 131.65548509 310.52740033 133.32914734 312.92520142 C136.27243677 317.14061893 139.22283774 321.35099776 142.17533875 325.55996704 C145.11092843 329.74615141 148.04211468 333.93541609 150.97367859 338.12442017 C152.1403234 339.79110213 153.30699008 341.45776879 154.47367859 343.12442017 C175.47367859 373.12442017 175.47367859 373.12442017 177.22416687 375.62515259 C178.38916223 377.28940844 179.55420119 378.95363378 180.71928406 380.61782837 C183.6618827 384.8211294 186.60368763 389.02498197 189.54399109 393.22988892 C195.0913789 401.16189357 200.64436554 409.08982788 206.22367859 416.99942017 C206.70756042 417.68616821 207.19144226 418.37291626 207.68998718 419.08047485 C210.08689174 422.47629284 212.49996264 425.85885237 214.94242859 429.22207642 C215.41132507 429.86999146 215.88022156 430.51790649 216.36332703 431.18545532 C217.24786547 432.40558498 218.13633401 433.62287845 219.02934265 434.83682251 C221.97367859 438.90205519 221.97367859 438.90205519 221.97367859 441.12442017 C215.46739016 441.26961908 208.96103766 441.41165146 202.45463562 441.55166626 C200.24954225 441.59947055 198.04446344 441.64795246 195.83940125 441.69717407 C185.21452103 441.93392675 174.58975897 442.16804437 163.96195984 442.20254517 C163.27510101 442.20693604 162.58824219 442.2113269 161.88056946 442.21585083 C147.59691538 442.21144753 132.6140301 441.13736078 121.72758484 431.00332642 C117.4048078 426.37246727 114.1072055 421.29817611 110.78617859 415.93692017 C105.79600533 407.95814827 100.6957667 400.05712588 95.53617859 392.18692017 C95.17341827 391.63348938 94.81065796 391.08005859 94.43690491 390.50985718 C92.63037598 387.75384605 90.82338418 384.99813888 89.01615906 382.24258423 C86.03343923 377.68899857 83.06407866 373.1267983 80.09867859 368.56192017 C79.57282166 367.75246948 79.04696472 366.9430188 78.50517273 366.10903931 C75.15601241 360.95094328 71.81348467 355.78857643 68.47367859 350.62442017 C64.45640852 344.41377499 60.43709778 338.20446307 56.41117859 331.99942017 C55.91746765 331.2369397 55.42375671 330.47445923 54.91508484 329.68887329 C51.56734727 324.53283706 48.17176006 319.40994834 44.75907898 314.29678345 C44.29761726 313.60500504 43.83615555 312.91322662 43.36071014 312.20048523 C42.2318939 310.50833393 41.10281324 308.81635902 39.97367859 307.12442017 C39.87152574 307.78464267 39.76937288 308.44486517 39.66412449 309.12509441 C37.17816539 325.19155629 34.69099019 341.25782938 32.2024622 357.32389355 C30.9990576 365.09332899 29.79606432 372.8628277 28.59403992 380.63247681 C27.54632579 387.40468775 26.49783931 394.17677859 25.44842619 400.94872648 C24.89282733 404.53422899 24.33761474 408.11979036 23.7833271 411.70549583 C23.16446359 415.70884893 22.54387585 419.7119329 21.92314148 423.71499634 C21.73972198 424.90326523 21.55630249 426.09153412 21.36732483 427.31581116 C21.19766708 428.40811035 21.02800934 429.50040955 20.85321045 430.62580872 C20.70664536 431.57249011 20.56008028 432.5191715 20.40907383 433.49454021 C19.98638095 436.04769522 19.48120918 438.58676723 18.97367859 441.12442017 C-12.37632141 441.12442017 -43.72632141 441.12442017 -76.02632141 441.12442017 C-73.71412167 421.47072237 -73.71412167 421.47072237 -72.20710087 412.12699795 C-72.09606498 411.43581934 -71.98502909 410.74464073 -71.87062848 410.03251731 C-71.69777949 408.9571291 -71.69777949 408.9571291 -71.5214386 407.86001587 C-71.27333802 406.29985483 -71.02554552 404.73964478 -70.77802944 403.17939091 C-70.24477092 399.82219509 -69.70935875 396.46535268 -69.17221642 393.10877609 C-68.2978393 387.64477715 -67.42836847 382.18000336 -66.55935669 376.71514893 C-65.2968281 368.77880586 -64.03200577 360.84283131 -62.76560974 352.90710449 C-60.75766197 340.32395075 -58.75454087 327.7400313 -56.75263977 315.15591431 C-56.49920793 313.56284802 -56.49920793 313.56284802 -56.24065626 311.93759859 C-55.55115056 307.60330074 -54.861668 303.26899921 -54.17225212 298.93468708 C-53.29523514 293.42095655 -52.41807678 287.90724858 -51.54060173 282.39359093 C-46.20914127 248.89306819 -40.89856867 215.38929326 -35.60835266 181.88223267 C-35.43825007 180.80484856 -35.26814748 179.72746446 -35.09289026 178.61743236 C-32.75231613 163.79217919 -30.41316612 148.96670145 -28.07454872 134.14113951 C-26.80081017 126.06640232 -25.5269397 117.99168594 -24.25308681 109.9169668 C-23.79288389 106.999764 -23.3327092 104.08255675 -22.87253761 101.16534901 C-21.42639408 91.99801786 -19.97972016 82.83077099 -18.53166199 73.66374207 C-18.12826729 71.10988907 -17.72487371 68.55603591 -17.32148099 66.0021826 C-17.06174414 64.35785895 -16.80199005 62.71353803 -16.54221797 61.06921995 C-15.09294636 51.89491024 -13.64779188 42.71998624 -12.21159077 33.54362011 C-11.53853882 29.24551698 -10.86269562 24.94785625 -10.18615532 20.65030098 C-9.89431079 18.79132528 -9.6039025 16.93212342 -9.31508064 15.0726757 C-8.93977354 12.65648362 -8.55976491 10.24108147 -8.17842102 7.82583618 C-7.97671799 6.53468399 -7.77501495 5.2435318 -7.56719971 3.91325378 C-6.61271121 -1.00820383 -4.61770968 0.00809781 0 0 Z " fill="#6556FA" transform="translate(1626.0263214111328,288.8755798339844)"/>
<path d="M0 0 C7.64416668 6.95520746 11.63479011 17.21435536 12.21875 27.421875 C12.34691179 35.36708915 11.83154243 42.87487115 10.16625977 50.65112305 C9.98826875 51.50981586 9.81027773 52.36850866 9.62689304 53.25322247 C7.52987276 63.27499322 5.25648032 73.25778989 2.97265625 83.23828125 C2.49164554 85.34963567 2.01088448 87.46104697 1.53034973 89.57250977 C0.50141757 94.09145622 -0.52909956 98.610037 -1.56091309 103.12832642 C-3.21022665 110.35082257 -4.85594466 117.57413501 -6.50097656 124.79760742 C-7.07076492 127.29945495 -7.64055867 129.80130126 -8.21035767 132.30314636 C-8.63889982 134.18478517 -8.63889982 134.18478517 -9.0760994 136.10443687 C-9.95633909 139.96875886 -10.83693442 143.83299965 -11.71762085 147.69721985 C-15.92764223 166.17078508 -20.12574191 184.64703456 -24.31640625 203.125 C-24.53856808 204.10453884 -24.53856808 204.10453884 -24.76521802 205.10386634 C-27.24446425 216.03516999 -29.72299577 226.96663567 -32.20137405 237.89813614 C-34.07394155 246.15744464 -35.9468411 254.41667773 -37.8203125 262.67578125 C-38.07609007 263.80337671 -38.33186764 264.93097218 -38.59539604 266.0927372 C-44.74575981 293.20261413 -50.9295617 320.3048571 -57.1171875 347.40625 C-56.06419181 347.40844984 -56.06419181 347.40844984 -54.98992348 347.41069412 C-37.87862711 347.44780746 -20.76754618 347.50688197 -3.65641212 347.59015274 C4.6185474 347.62989751 12.89341246 347.6623131 21.16845703 347.67724609 C28.38420646 347.69028635 35.59974763 347.71731126 42.81537974 347.76086307 C46.63313928 347.78342483 50.45064246 347.79916388 54.26847458 347.79813385 C57.86866589 347.79738408 61.46829164 347.81546028 65.06833649 347.84741783 C67.00583473 347.85987727 68.94342821 347.85287754 70.88095093 347.84510803 C79.60466446 347.94841162 87.11726086 349.389562 94.2578125 354.65625 C99.73280429 360.39195569 101.88880247 366.43959029 101.8828125 374.40625 C101.23226737 380.18026132 100.22119024 385.87643837 99.1953125 391.59375 C98.93443772 393.10071987 98.67466615 394.60788115 98.41601562 396.11523438 C96.92373155 404.75757011 95.3449485 413.38459801 93.77416992 422.01293945 C93.59123131 423.01844093 93.40829269 424.02394241 93.21981049 425.05991364 C92.77426388 427.50871418 92.32859592 429.95749256 91.8828125 432.40625 C53.05949521 433.27490979 14.25587988 433.59481496 -24.57558155 433.59136021 C-30.47333778 433.5917175 -36.37103621 433.60345631 -42.26877403 433.6172964 C-48.07899021 433.63042598 -53.88918052 433.63573517 -59.69941139 433.63509732 C-63.11685702 433.63484624 -66.53423001 433.63748337 -69.95166016 433.64827538 C-119.29655186 433.77742865 -119.29655186 433.77742865 -137.9296875 417.34375 C-149.14105663 405.19810011 -151.04546548 389.23530697 -150.65429688 373.48925781 C-150.26138834 364.93529917 -148.58319802 356.88487087 -146.671875 348.55859375 C-146.31052909 346.94184289 -145.95016302 345.32487278 -145.59069824 343.70770264 C-144.64112349 339.45453891 -143.67458198 335.20544151 -142.70146942 330.95760727 C-142.13016352 328.46291181 -141.5616475 325.96759694 -140.99395752 323.47207642 C-138.45041484 312.30092587 -135.86522357 301.13958803 -133.2726326 289.97973633 C-131.41473559 281.97640118 -129.56483715 273.97120976 -127.71389961 265.96626282 C-127.22880435 263.86833386 -126.7436291 261.77042339 -126.25837517 259.67253113 C-120.6892467 235.593564 -115.18039654 211.50092369 -109.6796875 187.40625 C-107.94539466 179.81055072 -106.21096168 172.21488344 -104.47642517 164.61923981 C-103.96215421 162.36720461 -103.4479026 160.115165 -102.93367004 157.86312103 C-98.29577894 137.55275418 -93.647536 117.24476674 -88.99609375 96.9375 C-88.8240556 96.18639954 -88.65201745 95.43529907 -88.47476602 94.66143799 C-85.05610832 79.73595322 -81.63686038 64.81060371 -78.21697038 49.88540125 C-76.93844262 44.30554946 -75.66010882 38.72565326 -74.38190752 33.14572668 C-73.35656179 28.66971238 -72.33079186 24.19379542 -71.3049469 19.71789551 C-70.7757084 17.40763757 -70.24648682 15.09737575 -69.71728516 12.78710938 C-69.48160104 11.75922806 -69.24591692 10.73134674 -69.00309086 9.6723175 C-68.78265834 8.70968491 -68.56222582 7.74705231 -68.33511353 6.75524902 C-68.12833607 5.85445114 -67.92155861 4.95365326 -67.70851517 4.02555847 C-67.31114923 2.26541087 -66.92423135 0.50287491 -66.54731369 -1.26176453 C-65.21512969 -7.49580781 -65.21512969 -7.49580781 -64.1171875 -8.59375 C-62.79780396 -8.82070262 -61.46807058 -8.98825525 -60.13671875 -9.12890625 C-59.30946289 -9.2163208 -58.48220703 -9.30373535 -57.62988281 -9.39379883 C-37.69114071 -11.33178687 -16.92366009 -12.73958176 0 0 Z " fill="#6556FA" transform="translate(953.1171875,294.59375)"/>
<path d="M0 0 C0.97243652 -0.00812714 1.94487305 -0.01625427 2.94677734 -0.02462769 C32.69063691 -0.211694 67.19060357 3.18959232 89.5546875 25.13671875 C90.25851562 25.87535156 90.96234375 26.61398437 91.6875 27.375 C92.39132812 28.08269531 93.09515625 28.79039062 93.8203125 29.51953125 C110.34137046 46.95144602 114.06333613 69.63298956 114.05810547 92.84667969 C114.06239948 94.95074644 114.09865861 97.05256229 114.13671875 99.15625 C114.20875571 108.08247648 113.36066195 116.75355851 112.06591797 125.58056641 C111.80400099 127.38611433 111.80400099 127.38611433 111.53679276 129.22813797 C109.16073202 145.3045713 106.38283001 161.3154736 103.62790966 177.33040142 C102.8510483 181.85148215 102.07865123 186.37332573 101.3057251 190.89508057 C99.84978502 199.40867359 98.3899898 207.92160057 96.92871118 216.43427873 C94.94838757 227.97204268 92.97421803 239.51085957 90.99965286 251.04961014 C87.90053975 269.15892232 84.79337724 287.26684367 81.6875 305.375 C58.2575 305.375 34.8275 305.375 10.6875 305.375 C11.81246285 291.87544575 11.81246285 291.87544575 12.70542908 286.69343567 C13.00606514 284.92594971 13.00606514 284.92594971 13.31277466 283.12275696 C13.6392952 281.24985237 13.6392952 281.24985237 13.97241211 279.33911133 C14.20621744 277.97585677 14.43955624 276.61252214 14.67247009 275.24911499 C15.17097958 272.33663766 15.67262911 269.42472593 16.17680168 266.51322365 C16.97690709 261.89206272 17.76919574 257.26958152 18.56044006 252.64689636 C20.1000304 243.65822351 21.64692605 234.67081623 23.19504547 225.68360901 C25.16220935 214.26320256 27.12742335 202.84246943 29.08320242 191.42010707 C29.73998307 187.58566952 30.39865251 183.75157711 31.061903 179.91825294 C36.22777614 151.44935084 36.22777614 151.44935084 38 122.625 C37.99154053 121.0169751 37.99154053 121.0169751 37.98291016 119.37646484 C37.78916061 106.75588816 35.8701315 94.6087483 27.24609375 84.72265625 C14.75483575 73.52477101 -3.46013315 72.56852029 -19.3125 73.375 C-33.9154505 74.45586604 -48.26446649 76.13692557 -62.3125 80.375 C-63.92706353 85.65175612 -65.01527373 90.87314698 -65.91297913 96.31413269 C-66.06099029 97.19117161 -66.20900146 98.06821052 -66.36149782 98.97182637 C-66.85425446 101.89750407 -67.34130094 104.82410278 -67.82836914 107.75073242 C-68.18136837 109.85368097 -68.53472525 111.95656952 -68.88841248 114.05940247 C-69.64810213 118.58080456 -70.40526084 123.10262057 -71.16044807 127.62477684 C-72.35408391 134.77235525 -73.553311 141.91898861 -74.75328064 149.06550598 C-76.64984814 160.36477108 -78.54260678 171.66467038 -80.43376964 182.96484119 C-83.82271717 203.21410235 -87.21739554 223.46240281 -90.61456579 243.71028596 C-91.80695477 250.81817123 -92.99743554 257.92637276 -94.18636143 265.03483808 C-94.92513642 269.45028894 -95.66518007 273.86552652 -96.40552711 278.28071404 C-96.74915141 280.33173019 -97.09221907 282.38283968 -97.4346962 284.4340477 C-97.90134165 287.22855102 -98.36993294 290.0227213 -98.83900452 292.81681824 C-98.97480157 293.63305497 -99.11059863 294.4492917 -99.25051075 295.29026288 C-99.82442931 298.69799349 -100.47365176 302.01960703 -101.3125 305.375 C-127.3825 305.375 -153.4525 305.375 -180.3125 305.375 C-178.01514786 289.293535 -178.01514786 289.293535 -176.82400513 282.34191895 C-176.68783873 281.53813482 -176.55167234 280.73435069 -176.41137969 279.90620947 C-175.9636517 277.2659509 -175.51333589 274.62614101 -175.06298828 271.98632812 C-174.73718388 270.06833508 -174.4115406 268.15031465 -174.08604431 266.23226929 C-173.20482072 261.04232891 -172.32131829 255.85277883 -171.43737268 250.66330147 C-170.49813696 245.14696766 -169.56095131 239.63028553 -168.62350464 234.11364746 C-167.03929016 224.79267878 -165.45371169 215.47194299 -163.8671875 206.15136719 C-161.67513512 193.27338226 -159.48568493 180.39495596 -157.29671335 167.51644707 C-148.67518701 116.79578348 -140.02795048 66.07961457 -131.3125 15.375 C-127.38589646 14.57834176 -123.45840775 13.78613014 -119.53076172 12.99462891 C-117.88662544 12.66097069 -117.88662544 12.66097069 -116.20927429 12.3205719 C-105.33288066 10.13294305 -94.41267103 8.35985607 -83.4375 6.75 C-82.42792236 6.60158661 -81.41834473 6.45317322 -80.37817383 6.30026245 C-53.50689867 2.38122803 -27.16654028 0.13315349 0 0 Z " fill="#6556FA" transform="translate(1415.3125,423.625)"/>
<path d="M0 0 C-0.5479989 8.22015514 -1.59221496 16.22574568 -3.06640625 24.328125 C-3.26475571 25.44314392 -3.46310516 26.55816284 -3.66746521 27.70697021 C-4.29400021 31.22225603 -4.92811051 34.73612411 -5.5625 38.25 C-5.99204096 40.6522536 -6.42108201 43.05459664 -6.84960938 45.45703125 C-7.89396886 51.30573286 -8.94452906 57.15329395 -10 63 C-9.07491135 62.99666908 -9.07491135 62.99666908 -8.13113403 62.99327087 C-1.67401716 62.97103414 4.78308871 62.95601713 11.24023438 62.94506836 C13.64551231 62.94006006 16.05078724 62.93325152 18.45605469 62.92456055 C21.92643989 62.91234088 25.3967846 62.90673651 28.8671875 62.90234375 C29.93113739 62.89718246 30.99508728 62.89202118 32.09127808 62.88670349 C38.45658233 62.88623228 44.68089727 63.22734642 51 64 C47.22209799 75.19610034 43.22280906 86.29998754 38.9375 97.3125 C38.53869629 98.36687256 38.13989258 99.42124512 37.72900391 100.50756836 C34.82248551 107.86834686 32.03953533 113.85149851 24.86669922 117.66650391 C20.5854746 119.3905395 16.56636693 119.3818214 12.00390625 119.29296875 C11.17036118 119.28872391 10.3368161 119.28447906 9.47801208 119.28010559 C6.83916689 119.26343314 4.20111084 119.22580358 1.5625 119.1875 C-0.23631703 119.17243833 -2.03514613 119.15875253 -3.83398438 119.14648438 C-8.22296636 119.1161318 -12.61132626 119.05927717 -17 119 C-17.25747765 120.94957611 -17.25747765 120.94957611 -17.52015686 122.9385376 C-19.43372301 137.27956007 -21.60403527 151.57047661 -23.87109375 165.859375 C-24.23858279 168.18699812 -24.60585186 170.51465597 -24.97291565 172.84234619 C-25.93108708 178.91515106 -26.89189248 184.98753599 -27.85339355 191.05981445 C-29.20167288 199.57778394 -30.54637294 208.09631929 -31.89137268 216.61480713 C-32.77164001 222.18992265 -33.65343804 227.76479359 -34.53698826 233.3393898 C-34.86524855 235.420265 -35.19093219 237.50154846 -35.51392269 239.58324814 C-36.36263294 245.04541996 -37.25464626 250.4957666 -38.20901489 255.94055176 C-38.40398339 257.0938007 -38.59895189 258.24704964 -38.79982853 259.43524551 C-39.17005889 261.6239261 -39.5547566 263.81023431 -39.95736599 265.99319077 C-41.2351878 273.70532877 -41.69964299 282.19606944 -37.73950291 289.24301529 C-33.8077844 294.54866343 -28.07325074 296.89450936 -21.85546875 298.58203125 C3.02318966 302.22364062 25.45050549 294.19307987 48.41235352 285.85449219 C51 285 51 285 53 285 C52.34759345 291.76121249 50.81341908 298.10417932 49.05078125 304.65625 C48.60813179 306.30880798 48.60813179 306.30880798 48.15653992 307.99475098 C47.53174474 310.31522212 46.90373763 312.63483057 46.27270508 314.95361328 C45.3167357 318.484356 44.38579707 322.02112407 43.45507812 325.55859375 C42.84268502 327.82072974 42.2288017 330.08246295 41.61328125 332.34375 C41.34115311 333.39292603 41.06902496 334.44210205 40.78865051 335.52307129 C38.47842526 343.83017582 34.62994258 351.14934958 27.2109375 355.9765625 C12.45150402 362.80866775 -7.41515969 362.35695951 -23.38354492 362.31567383 C-25.932562 362.31250614 -28.48042109 362.33612565 -31.02929688 362.36132812 C-54.28959605 362.45113299 -79.51428273 358.59253694 -97.19140625 342.0546875 C-111.26548432 326.0655621 -112.38610637 303.56130354 -111.17964935 283.30434418 C-109.95405467 267.58376442 -107.04061902 251.93606476 -104.58289337 236.37356567 C-103.70640179 230.79678216 -102.8519908 225.21661872 -101.99560547 219.63671875 C-100.63911039 210.81358119 -99.27122905 201.99229382 -97.89404297 193.17236328 C-96.24515224 182.6075424 -94.62907626 172.03808448 -93.03515625 161.46484375 C-92.82024935 160.04117842 -92.60530974 158.61751802 -92.39033508 157.19386292 C-91.99009006 154.5428216 -91.58996727 151.89176194 -91.18991089 149.24069214 C-90.3109083 143.42016694 -89.42851986 137.60018695 -88.5390625 131.78125 C-88.39497452 130.82890976 -88.25088654 129.87656952 -88.10243225 128.89537048 C-87.97017746 128.03335526 -87.83792267 127.17134003 -87.70166016 126.28320312 C-87.53302963 125.17676453 -87.53302963 125.17676453 -87.36099243 124.04797363 C-87.00228108 122.01294098 -86.50117695 120.0047078 -86 118 C-101.51 118 -117.02 118 -133 118 C-130.1296258 77.81476122 -130.1296258 77.81476122 -115.1171875 64.4296875 C-114.04443142 63.56810256 -112.96319142 62.71700574 -111.875 61.875 C-111.26938232 61.40618408 -110.66376465 60.93736816 -110.03979492 60.4543457 C-95.89505638 49.71999164 -80.50078957 41.48515977 -64.71484375 33.4453125 C-58.66599667 30.36104627 -52.69576082 27.15277738 -46.75 23.875 C-38.23655964 19.18908985 -29.65623642 14.64716351 -21.02441406 10.18310547 C-15.36772422 7.25422453 -9.77425551 4.23680955 -4.22143555 1.11474609 C-2 0 -2 0 0 0 Z " fill="#6556FA" transform="translate(2544,369)"/>
<path d="M0 0 C30.03 0 60.06 0 91 0 C84.09085265 46.06098236 84.09085265 46.06098236 80.86230469 66.98022461 C80.49022456 69.39512717 80.11820735 71.81003942 79.74624634 74.22496033 C78.65814952 81.28749419 77.56869414 88.349818 76.4789542 95.4120985 C75.96108477 98.76851983 75.44339984 102.12496962 74.92569733 105.4814167 C73.20013723 116.66844312 71.47422214 127.85541466 69.74708176 139.04219723 C69.63802638 139.74856071 69.528971 140.45492419 69.41661091 141.18269262 C69.25273816 142.24411372 69.25273816 142.24411372 69.08555484 143.32697767 C68.86432748 144.75989581 68.64310087 146.19281406 68.421875 147.62573242 C68.31214927 148.3364428 68.20242354 149.04715318 68.08937278 149.77940024 C66.29777316 161.38433474 64.50880202 172.98967287 62.72088704 184.59517556 C60.87196212 196.59643235 59.02079631 208.59734177 57.16740727 220.59790999 C56.13196828 227.30266132 55.09748302 234.00755662 54.06551361 240.71284294 C53.09952212 246.98863729 52.13070387 253.26398875 51.15970993 259.539011 C50.80473839 261.83622275 50.45078234 264.13359169 50.09792709 266.43112946 C49.61563223 269.57044117 49.12965018 272.70916107 48.64276123 275.84776306 C48.43585478 277.20327244 48.43585478 277.20327244 48.2247684 278.58616585 C48.09211746 279.43633264 47.95946653 280.28649943 47.82279587 281.16242886 C47.71137276 281.88461808 47.59994966 282.6068073 47.4851501 283.35088104 C46.76991729 287.25634618 45.86130451 291.12412971 45 295 C15.3 295 -14.4 295 -45 295 C-43.85134734 280.06751547 -43.85134734 280.06751547 -42.73892212 273.09390259 C-42.5532718 271.89056638 -42.5532718 271.89056638 -42.36387098 270.66292036 C-41.95513072 268.02143238 -41.53936818 265.38110254 -41.12353516 262.74072266 C-40.82553965 260.82453969 -40.52798563 258.90828803 -40.23083496 256.99197388 C-39.42471389 251.80149055 -38.61246477 246.61198291 -37.79912233 241.42262697 C-36.93578342 235.90710638 -36.0782484 230.39068337 -35.22006226 224.87435913 C-33.58325035 214.35875333 -31.9414097 203.84393926 -30.29769838 193.32940996 C-28.29195875 180.49759895 -26.29238602 167.66482862 -24.29296875 154.83203125 C-22.17697654 141.25239011 -20.06036167 127.67284728 -17.94049072 114.09381104 C-14.79689956 93.95580013 -11.65711532 73.81724157 -8.54199219 53.67480469 C-8.34350036 52.39164608 -8.34350036 52.39164608 -8.1409986 51.08256507 C-6.92036999 43.19141833 -5.70063543 35.30013573 -4.48450947 27.40829372 C-4.16226665 25.31804815 -3.83956291 23.22787434 -3.51666641 21.13772964 C-3.1322182 18.64865207 -2.74862291 16.15944253 -2.36608505 13.67007065 C-2.19890095 12.58868946 -2.03171684 11.50730827 -1.85946655 10.39315796 C-1.71641775 9.46455648 -1.57336895 8.53595501 -1.42598534 7.5792141 C-1.00707616 5.04284406 -0.50416183 2.52080913 0 0 Z " fill="#6556FA" transform="translate(1135,435)"/>
<path d="M0 0 C28.05 0 56.1 0 85 0 C80.1849972 31.02076577 80.1849972 31.02076577 78.39111328 42.45947266 C78.26582001 43.25840793 78.14052674 44.0573432 78.0114367 44.88048863 C71.54059112 86.11520692 64.90211558 127.32371489 58.30251944 168.53797066 C56.83638901 177.69451391 55.37137104 186.85123471 53.90698242 196.00805664 C51.86694074 208.76443048 49.82591205 221.52064601 47.78404427 234.27672768 C47.01137708 239.10390845 46.23909531 243.93115066 45.46713066 248.75844383 C44.56585018 254.39407602 43.66361388 260.02955435 42.76062584 265.66491318 C42.43012351 267.72849877 42.0999534 269.7921376 41.77013779 271.85583305 C41.32088022 274.666541 40.8704263 277.47705465 40.41966248 280.28752136 C40.28932238 281.10476486 40.15898228 281.92200836 40.02469248 282.76401681 C39.90346618 283.51826733 39.78223987 284.27251785 39.65734005 285.04962444 C39.55378104 285.69652979 39.45022203 286.34343513 39.34352487 287.00994366 C38.93992256 289.34803152 38.46531832 291.6734084 38 294 C9.95 294.33 -18.1 294.66 -47 295 C-43.5538448 269.72819517 -43.5538448 269.72819517 -42.19229126 261.28636169 C-42.03399727 260.29163898 -41.87570328 259.29691627 -41.71261251 258.27205044 C-41.19699533 255.03572208 -40.67788134 251.79996593 -40.15869141 248.56420898 C-39.78192016 246.20414013 -39.40536522 243.84403673 -39.02900696 241.48390198 C-38.01673046 235.14011358 -37.00133723 228.79682786 -35.98524141 222.45365024 C-35.02312114 216.44625846 -34.06358087 210.43845431 -33.10370247 204.43070401 C-31.19982622 192.51523217 -29.29346328 180.60015954 -27.38574219 168.68530273 C-25.54674022 157.19963326 -23.70978248 145.71363921 -21.875 134.22729492 C-19.86498014 121.64392459 -17.85381326 109.06073856 -15.84071672 96.47786003 C-15.6247004 95.12764083 -15.40868446 93.77742156 -15.19266891 92.42720222 C-15.08645714 91.7633297 -14.98024536 91.09945718 -14.87081505 90.4154673 C-14.1331436 85.80425406 -13.39623531 81.19291924 -12.65959549 76.58154106 C-11.66147855 70.33397044 -10.66154139 64.08669356 -9.66031456 57.83962059 C-9.29736831 55.57333661 -8.93499178 53.30696128 -8.57329369 51.04047775 C-5.85339429 34.00067292 -2.93222246 17.00689027 0 0 Z " fill="#6556FA" transform="translate(2292,435)"/>
<path d="M0 0 C11.46275567 9.79796816 18.96131677 22.59145076 20.984375 37.63671875 C22.09437481 53.87776865 18.6029216 68.03181947 8.20703125 80.89453125 C7.43617187 81.88195312 6.6653125 82.869375 5.87109375 83.88671875 C-2.96100005 94.3985768 -16.35630127 99.7371894 -29.62890625 101.640625 C-46.88435858 103.02532179 -61.88109621 97.75469483 -74.98046875 86.70703125 C-85.50090812 76.86373162 -92.02169129 63.04422642 -93.015625 48.67578125 C-93.44398488 31.83937553 -88.73543499 17.32344173 -77.09692383 5.05810547 C-56.06833724 -16.14322223 -23.73986899 -17.89620893 0 0 Z " fill="#FF3A86" transform="translate(1222.79296875,299.10546875)"/>
<path d="M0 0 C11.36716269 8.55037311 18.79526398 19.93222516 21.5859375 33.94140625 C23.70603773 49.6021466 20.18627769 64.11390528 10.87890625 76.91796875 C2.19764332 87.25280557 -9.46994237 94.31493788 -23 96 C-38.80431949 97.10299338 -52.93740121 94.37168686 -65.1875 83.75 C-75.26850284 74.15882645 -82.59957565 63.08318693 -83.23828125 48.8125 C-83.64025437 31.4789864 -79.86188259 18.07169641 -67.6875 5.1875 C-49.12131945 -12.31596988 -21.0946984 -14.13530377 0 0 Z " fill="#6556FA" transform="translate(2376,297)"/>
<path d="M0 0 C1.92102539 -0.02416992 1.92102539 -0.02416992 3.88085938 -0.04882812 C14.86090712 -0.05442163 26.38171876 0.86585393 35.0625 8.3125 C39.15626591 13.45594948 40.45822247 17.41427561 40.3359375 23.96875 C39.31912389 32.68429522 35.65439831 38.74348247 29.0625 44.3125 C28.0725 45.3025 28.0725 45.3025 27.0625 46.3125 C28.7021875 47.364375 28.7021875 47.364375 30.375 48.4375 C35.14802347 51.88950485 36.94183594 55.69168864 37.9375 61.4375 C38.62288307 70.09957542 35.89631477 78.40301089 30.78515625 85.34765625 C22.79628631 94.45967798 11.75822813 97.83104711 0.0625 99.3125 C-4.75394453 99.58124789 -9.55214422 99.59265856 -14.375 99.5625 C-15.60798828 99.57023438 -16.84097656 99.57796875 -18.11132812 99.5859375 C-25.92389516 99.56942917 -33.27695643 98.81265685 -40.9375 97.3125 C-40.36669198 86.60723464 -38.77218574 76.17791587 -37.03125 65.61328125 C-36.74323225 63.84309453 -36.4556008 62.07284491 -36.16833496 60.30253601 C-35.56988071 56.62178144 -34.96777295 52.94165037 -34.36279297 49.26196289 C-33.58673639 44.54072136 -32.81851877 39.81824475 -32.05278778 35.09531879 C-31.46170169 31.45332857 -30.86730359 27.81188532 -30.27180481 24.17061424 C-29.98707546 22.42797912 -29.70320715 20.68520309 -29.42021179 18.94228554 C-29.02624221 16.51997558 -28.62800389 14.09840702 -28.22851562 11.67700195 C-28.11212234 10.95655701 -27.99572906 10.23611206 -27.87580872 9.49383545 C-27.0519158 4.5413316 -27.0519158 4.5413316 -25.9375 2.3125 C-17.61090755 -0.30413553 -8.62685485 -0.02164289 0 0 Z M-9.9375 15.3125 C-12.37133621 27.74612986 -12.37133621 27.74612986 -13.9375 40.3125 C2.11650352 41.37990481 2.11650352 41.37990481 16.80078125 36.09375 C20.0652931 32.78325911 21.0630883 28.92354562 21.3203125 24.4296875 C21.19096139 22.018389 21.19096139 22.018389 19.0625 19.375 C12.74720242 15.03323292 6.53717995 15.04094739 -0.875 15.1875 C-1.74962891 15.19652344 -2.62425781 15.20554687 -3.52539062 15.21484375 C-5.66288064 15.2382043 -7.80022786 15.27406753 -9.9375 15.3125 Z M-16.9375 55.3125 C-17.60797742 59.41605363 -18.27322962 63.5204374 -18.9375 67.625 C-19.12828125 68.79224609 -19.3190625 69.95949219 -19.515625 71.16210938 C-19.69609375 72.28037109 -19.8765625 73.39863281 -20.0625 74.55078125 C-20.31386719 76.0982605 -20.31386719 76.0982605 -20.5703125 77.67700195 C-21.00649546 80.3642244 -21.00649546 80.3642244 -20.9375 83.3125 C-10.13113494 84.51140707 2.5757057 85.71608615 12.0625 79.3125 C15.73006246 76.05244448 17.79235106 73.96527402 18.30078125 68.97265625 C18.53739903 63.60216641 18.53739903 63.60216641 16.4375 58.8125 C11.80757498 55.88833683 7.42604388 55.06132944 2.0078125 55.1171875 C0.34492187 55.12685547 0.34492187 55.12685547 -1.3515625 55.13671875 C-2.49367188 55.15347656 -3.63578125 55.17023437 -4.8125 55.1875 C-5.9778125 55.19652344 -7.143125 55.20554687 -8.34375 55.21484375 C-11.20854577 55.23832568 -14.07291535 55.27116859 -16.9375 55.3125 Z " fill="#6556FA" transform="translate(1295.9375,795.6875)"/>
<path d="M0 0 C0.90258545 0.00580078 1.8051709 0.01160156 2.73510742 0.01757812 C10.68679498 0.1696692 18.11798597 1.38931896 25.8125 3.375 C27.00777246 6.96081739 26.58905572 8.88056708 25.97973633 12.59960938 C25.77234329 13.8852478 25.56495026 15.17088623 25.35127258 16.4954834 C25.1161606 17.90331725 24.88056773 19.31107086 24.64453125 20.71875 C24.40572968 22.16779198 24.16726538 23.61688959 23.92912292 25.06604004 C23.4270256 28.10997798 22.91931061 31.15291608 22.40795898 34.1953125 C21.75818958 38.0652567 21.12452134 41.93763305 20.49550343 45.81099701 C20.006185 48.809986 19.50692893 51.80726018 19.00494957 54.80415344 C18.76768246 56.22912978 18.53365919 57.65465065 18.30314064 59.08073425 C16.07269215 72.82414798 13.28568201 85.30856108 2.25 94.625 C-9.99771986 103.01950462 -26.17508908 103.12520732 -40.390625 100.76171875 C-43.41529224 100.11214814 -46.30206213 99.49029336 -49.1875 98.375 C-50.1875 96.375 -50.1875 96.375 -49.19140625 93.1171875 C-48.71860016 91.8252948 -48.23778031 90.53631362 -47.75 89.25 C-47.50701172 88.59128906 -47.26402344 87.93257812 -47.01367188 87.25390625 C-46.41171679 85.62508662 -45.80047588 83.99970425 -45.1875 82.375 C-35.1875 84.375 -35.1875 84.375 -32.75 84.92578125 C-24.65782249 86.34437944 -16.51157795 86.23678656 -9.1875 82.375 C-6.18186637 79.36936637 -4.46525911 76.42123717 -3.1875 72.375 C-3.1875 71.385 -3.1875 70.395 -3.1875 69.375 C-4.43273438 69.85839844 -4.43273438 69.85839844 -5.703125 70.3515625 C-14.24090269 72.85929541 -24.99208914 72.61316334 -33.06640625 68.7734375 C-38.89076166 64.9334389 -42.47913126 60.12826984 -44.1875 53.375 C-44.48137512 50.4526147 -44.52122574 47.56061266 -44.5 44.625 C-44.49262817 43.42629272 -44.49262817 43.42629272 -44.48510742 42.20336914 C-44.25026891 30.35185245 -39.98674788 19.8378538 -31.97265625 11.00390625 C-22.97231952 2.79134516 -11.92906555 -0.18815914 0 0 Z M-20.1875 23.375 C-25.25842436 30.70941655 -27.12407892 38.50676834 -26.1875 47.375 C-24.50844546 52.23542103 -22.74377711 54.11948126 -18.1875 56.375 C-15.30620864 56.84619906 -15.30620864 56.84619906 -12.3125 56.75 C-10.83136719 56.76160156 -10.83136719 56.76160156 -9.3203125 56.7734375 C-5.3564481 56.26930512 -2.67449373 55.35969405 0.8125 53.375 C1.91100726 50.58757022 2.42553614 48.64492511 2.80859375 45.75 C2.93186539 45.00669434 3.05513702 44.26338867 3.18214417 43.49755859 C3.56784962 41.12699191 3.90903506 38.75237022 4.25 36.375 C4.50431959 34.7755872 4.76145094 33.17661878 5.02148438 31.578125 C6.31974557 24.01289354 6.31974557 24.01289354 6.8125 16.375 C3.90249203 14.91999601 1.3035667 15.16602616 -1.9375 15.125 C-3.75507813 15.08632813 -3.75507813 15.08632813 -5.609375 15.046875 C-12.04368536 15.63692093 -16.04055777 18.57327742 -20.1875 23.375 Z " fill="#6556FA" transform="translate(2523.1875,818.625)"/>
<path d="M0 0 C1.92102539 -0.02416992 1.92102539 -0.02416992 3.88085938 -0.04882812 C15.74748761 -0.05487327 26.84911366 1.23126707 36.0625 9.3125 C41.93178614 16.06217906 41.62524921 23.85688469 41.23730469 32.30908203 C40.42511039 41.61755463 35.26984501 49.82776013 28.2890625 55.83984375 C17.61942633 63.24556168 4.21555931 64.49283821 -8.375 64.375 C-9.29732422 64.37048828 -10.21964844 64.36597656 -11.16992188 64.36132812 C-13.42585048 64.34963938 -15.68163967 64.33325455 -17.9375 64.3125 C-17.96328125 65.00730469 -17.9890625 65.70210937 -18.015625 66.41796875 C-18.61941926 77.24509766 -20.78374308 87.70399499 -22.9375 98.3125 C-28.8775 98.3125 -34.8175 98.3125 -40.9375 98.3125 C-40.29874803 87.61144508 -38.77558487 77.21479136 -37.03125 66.6484375 C-36.74320857 64.88065035 -36.45557762 63.11279627 -36.16833496 61.34487915 C-35.56983576 57.66832764 -34.96775867 53.99238742 -34.36279297 50.31689453 C-33.58728634 45.6046339 -32.81884901 40.89125453 -32.05278778 36.17745018 C-31.46118987 32.53979241 -30.86695554 28.90256953 -30.27180481 25.26549149 C-29.98735732 23.52642814 -29.70348916 21.78726993 -29.42021179 20.04801559 C-29.02550912 17.62842933 -28.62751087 15.20940895 -28.22851562 12.79052734 C-28.11212234 12.07367767 -27.99572906 11.356828 -27.87580872 10.61825562 C-27.39903063 7.74629854 -26.86021828 5.08065485 -25.9375 2.3125 C-17.25996804 0.34499211 -8.87707879 -0.02227064 0 0 Z M-9.9375 16.3125 C-11.5875 26.8725 -13.2375 37.4325 -14.9375 48.3125 C1.56720615 49.15025581 1.56720615 49.15025581 16.5625 43.125 C20.54094429 38.64925017 21.83686352 34.53125876 22.4375 28.625 C22.01880923 24.92656483 21.44048785 23.16608542 19.0625 20.3125 C14.23719808 17.43785205 10.08684747 16.17720035 4.515625 16.21484375 C3.75411133 16.21734131 2.99259766 16.21983887 2.20800781 16.22241211 C1.25249023 16.23151611 0.29697266 16.24062012 -0.6875 16.25 C-3.74 16.270625 -6.7925 16.29125 -9.9375 16.3125 Z " fill="#6556FA" transform="translate(811.9375,795.6875)"/>
<path d="M0 0 C-2.32593595 16.05270636 -4.77782989 32.07768472 -7.42456055 48.08032227 C-7.62992432 49.33256592 -7.83528809 50.58480957 -8.046875 51.875 C-8.23088867 52.98617187 -8.41490234 54.09734375 -8.60449219 55.2421875 C-9.07098057 58.03059799 -9.07098057 58.03059799 -9 61 C-8.5781543 60.60321045 -8.15630859 60.2064209 -7.72167969 59.79760742 C-7.12774414 59.23920166 -6.53380859 58.6807959 -5.921875 58.10546875 C-5.26227783 57.48422119 -4.60268066 56.86297363 -3.9230957 56.22290039 C-2.46201756 54.85440151 -0.99426448 53.49299784 0.47973633 52.13842773 C3.81677614 49.06146417 7.06380112 46.02431124 9.99609375 42.5546875 C14.26363357 37.6930693 17.80691039 34.83023857 24.41015625 34.328125 C29.63230284 34.20498804 34.80461142 34.4779788 40 35 C34.20983764 41.82978661 28.18496007 48.04294943 21.3984375 53.890625 C16.17098534 58.48805849 11.10160658 63.26390487 6 68 C6.35191406 68.46148438 6.70382813 68.92296875 7.06640625 69.3984375 C8.72450052 71.58902679 10.36148871 73.79473093 12 76 C12.52980469 76.68964844 13.05960938 77.37929688 13.60546875 78.08984375 C17.77280524 83.72218214 21.10819775 89.69290902 24.375 95.875 C24.81618164 96.70813721 25.25736328 97.54127441 25.71191406 98.3996582 C27.58733266 102.01082877 29.00385519 105.01542077 30 109 C23.07 109 16.14 109 9 109 C7.68 106.40125 6.36 103.8025 5 101.125 C1.33793847 94.08262559 -2.75137712 87.97915925 -8 82 C-9.33722816 80.33645667 -10.67101408 78.67013532 -12 77 C-12.14622803 77.89831543 -12.29245605 78.79663086 -12.44311523 79.72216797 C-12.98657615 83.05105468 -13.53294316 86.37943705 -14.08129883 89.70751953 C-14.31814629 91.14873393 -14.55382968 92.59014013 -14.78833008 94.03173828 C-15.12536522 96.10240236 -15.4665644 98.17234327 -15.80859375 100.2421875 C-16.01282959 101.4885498 -16.21706543 102.73491211 -16.42749023 104.01904297 C-17 107 -17 107 -18 109 C-23.94 109 -29.88 109 -36 109 C-32.25030432 83.98620729 -28.23369586 59.01941217 -24.125 34.0625 C-23.99860012 33.29471096 -23.87220024 32.52692192 -23.74197006 31.73586655 C-22.16464909 22.15669292 -20.58390778 12.57808678 -19 3 C-16.58424393 2.49521515 -14.16755639 1.99602358 -11.75 1.5 C-11.06808594 1.35691406 -10.38617187 1.21382812 -9.68359375 1.06640625 C-6.35366879 0.38748951 -3.41667449 0 0 0 Z " fill="#6556FA" transform="translate(2147,785)"/>
<path d="M0 0 C-0.57728524 11.44471759 -2.65503301 22.65689224 -4.5625 33.9375 C-5.05775737 36.87217105 -5.55151079 39.80705209 -6.04026794 42.74281311 C-6.34244225 44.5576192 -6.64830304 46.3718165 -6.95838928 48.18528748 C-7.62144233 52.16494696 -8.19858015 55.94803162 -8 60 C-3.24774997 55.90467865 1.43012272 51.7302916 6.0625 47.5 C7.52860917 46.16180639 8.99485708 44.82372977 10.46899414 43.49438477 C12.06498176 41.99202455 12.06498176 41.99202455 13.54467773 40.11303711 C15.99503007 37.23517494 17.75107539 35.27528304 21.52319336 34.44384766 C24.35995344 34.31258369 27.10360476 34.386229 29.9375 34.5625 C30.90751953 34.59408203 31.87753906 34.62566406 32.87695312 34.65820312 C35.25449905 34.74018747 37.62561699 34.85481195 40 35 C38.68572922 37.93747848 37.31497601 39.8980337 34.9453125 42.06640625 C34.33598877 42.62932373 33.72666504 43.19224121 33.09887695 43.7722168 C32.44749756 44.36301025 31.79611816 44.95380371 31.125 45.5625 C30.45750732 46.17585205 29.79001465 46.7892041 29.10229492 47.42114258 C27.73400393 48.67740403 26.36347349 49.93123067 24.99072266 51.18261719 C23.14638345 52.86636271 21.31142993 54.55954487 19.48046875 56.2578125 C10.89975844 64.19619241 10.89975844 64.19619241 7 67 C7.5850007 70.35644153 8.61931023 71.91527766 11 74.3125 C18.03344229 82.06806162 30 98.37086033 30 109 C23.4 109 16.8 109 10 109 C8.700625 106.6075 7.40125 104.215 6.0625 101.75 C1.34235841 93.23384881 -3.87748154 84.74175489 -11 78 C-13.03082305 84.37605254 -14.06769032 90.83910439 -15.125 97.4375 C-15.30675781 98.55060547 -15.48851562 99.66371094 -15.67578125 100.81054688 C-16.12088952 103.5397634 -16.56095177 106.26980205 -17 109 C-22.94 109 -28.88 109 -35 109 C-34.24794004 98.19355457 -32.41182748 87.58467083 -30.65625 76.90625 C-30.32350502 74.86653917 -29.99103061 72.82678418 -29.65881348 70.7869873 C-28.96523727 66.53369716 -28.26902892 62.28084921 -27.57080078 58.02832031 C-26.67533239 52.57372268 -25.78555129 47.11821593 -24.89759064 41.66239166 C-24.213213 37.4602957 -23.52634742 33.25860952 -22.83866882 29.05705261 C-22.50947955 27.04447655 -22.1809547 25.03179169 -21.85310364 23.01899719 C-21.39606516 20.21603092 -20.9357996 17.41361386 -20.47460938 14.61132812 C-20.33951462 13.7791275 -20.20441986 12.94692688 -20.06523132 12.08950806 C-19.54789223 8.96300473 -19.00397031 6.01191092 -18 3 C-16.14453125 2.3046875 -16.14453125 2.3046875 -13.8125 1.875 C-13.00167969 1.7203125 -12.19085937 1.565625 -11.35546875 1.40625 C-10.57816406 1.2721875 -9.80085938 1.138125 -9 1 C-7.88625 0.79375 -6.7725 0.5875 -5.625 0.375 C-3 0 -3 0 0 0 Z " fill="#6556FA" transform="translate(1212,785)"/>
<path d="M0 0 C6.01093145 6.02345422 7.59240372 13.1886773 7.95703125 21.4765625 C7.60323529 36.15067096 7.60323529 36.15067096 4.875 38.87890625 C3.37081261 38.97202514 1.86228644 38.99636653 0.35522461 38.99243164 C-1.08615623 38.99231834 -1.08615623 38.99231834 -2.55665588 38.99220276 C-3.601436 38.98704147 -4.64621613 38.98188019 -5.72265625 38.9765625 C-6.78665146 38.97514755 -7.85064667 38.9737326 -8.94688416 38.97227478 C-12.36045083 38.96665689 -15.773953 38.95410136 -19.1875 38.94140625 C-21.49544176 38.93639356 -23.80338455 38.93183025 -26.11132812 38.92773438 C-31.78257426 38.91668165 -37.45378253 38.89992612 -43.125 38.87890625 C-42.67052448 40.49532041 -42.20805433 42.10948831 -41.7421875 43.72265625 C-41.48550293 44.62177734 -41.22881836 45.52089844 -40.96435547 46.44726562 C-39.60288561 50.39148894 -37.62435757 52.12922746 -33.96875 53.95703125 C-30.44401371 55.09966554 -27.16353265 55.17770688 -23.5 55.12890625 C-22.79939453 55.12503906 -22.09878906 55.12117187 -21.37695312 55.1171875 C-15.45901764 55.01972836 -9.90941769 54.1643324 -4.125 52.87890625 C-4.125 57.82890625 -4.125 62.77890625 -4.125 67.87890625 C-17.49015862 71.67395129 -33.03104324 75.11885631 -46.2421875 68.87890625 C-53.2760443 64.84439216 -58.40193889 59.40962012 -60.65625 51.51953125 C-63.18862319 37.25382893 -59.89558107 23.00101273 -52.125 10.87890625 C-44.3510636 1.25211454 -35.58458217 -4.33105588 -23.2734375 -5.9609375 C-14.82798082 -6.3905451 -6.84330099 -5.22053292 0 0 Z M-37.5625 17.87890625 C-39.40700781 21.07983352 -39.40700781 21.07983352 -40.125 25.87890625 C-30.225 25.87890625 -20.325 25.87890625 -10.125 25.87890625 C-9.75243093 18.33116507 -9.75243093 18.33116507 -13.125 12.87890625 C-16.89668498 9.53803873 -19.61426748 9.30554915 -24.5234375 9.46484375 C-30.28745554 10.38224001 -33.96145738 13.44685379 -37.5625 17.87890625 Z " fill="#6556FA" transform="translate(2094.125,824.12109375)"/>
<path d="M0 0 C6.42476431 5.89670149 9.53911643 12.97306105 10.203125 21.65625 C10.45582013 36.9864212 6.31628016 50.39271576 -4.26171875 61.6640625 C-13.36641641 69.43098005 -23.76615005 72.37884008 -35.5703125 72.28515625 C-42.67713102 71.69427043 -50.01853883 69.2744883 -55 64 C-62.36459642 53.93577145 -63.0325809 44.10047487 -62 32 C-59.95713779 20.47678919 -54.36233622 9.86762323 -45.15234375 2.49609375 C-32.23784256 -6.48077368 -13.55990804 -9.96869952 0 0 Z M-37.3125 17.1875 C-40.3993364 21.08798621 -41.78175448 25.22702313 -43 30 C-43.226875 30.804375 -43.45375 31.60875 -43.6875 32.4375 C-44.62467388 40.12232581 -44.70713891 46.52185834 -40 53 C-36.92515899 55.89396801 -34.21327893 56.23308605 -30.125 56.4375 C-24.13721549 56.21540117 -20.47352301 54.58436485 -16.34375 50.26953125 C-10.46766688 43.05404683 -7.77295892 34.29449414 -8 25 C-8.81670226 19.93207081 -9.87691828 16.15115876 -13.5 12.4375 C-22.21685466 7.42530857 -30.77587839 10.23020472 -37.3125 17.1875 Z " fill="#6556FA" transform="translate(2333,824)"/>
<path d="M0 0 C5.75291212 5.38514605 8.93000991 11.47875332 9.46875 19.41015625 C9.50300194 20.96059419 9.51264819 22.51173534 9.5 24.0625 C9.49427979 24.88669434 9.48855957 25.71088867 9.48266602 26.56005859 C9.13868012 38.56134419 5.50683269 49.27065458 -3 58 C-3.69222656 58.71929688 -4.38445313 59.43859375 -5.09765625 60.1796875 C-13.96442641 68.71805877 -23.84946949 71.3374745 -35.9296875 71.21875 C-43.4640743 70.6819489 -50.34508598 67.86095084 -55.59375 62.31640625 C-61.42462438 55.21360093 -63.64564806 47.25519058 -63.34765625 38.12109375 C-61.81910843 24.39851273 -57.57755984 12.45354479 -47.3203125 2.8203125 C-34.21926654 -7.45761244 -13.59607483 -11.73359882 0 0 Z M-38 17 C-42.20416718 24.29511827 -44.15245584 29.93477615 -44.3125 38.375 C-44.34988281 39.66148437 -44.38726563 40.94796875 -44.42578125 42.2734375 C-43.83592632 47.43602105 -41.77082189 50.29409622 -38.08203125 53.84765625 C-33.57910463 56.33989519 -27.77959202 55.78965682 -22.9375 54.4140625 C-16.87737975 51.4651647 -13.56653243 45.59831322 -10.9609375 39.61328125 C-8.38718929 32.14460069 -7.56575269 24.01589248 -10.25 16.5 C-12.81744388 12.83222303 -14.69519514 10.43493495 -19 9 C-27.32311316 8.45422209 -32.52221646 10.39856855 -38 17 Z " fill="#6556FA" transform="translate(2458,825)"/>
<path d="M0 0 C6.87063893 7.2225497 7.77859377 15.25043862 7.7109375 24.91577148 C7.24898183 38.7638044 1.55904149 51.16996856 -8.5078125 60.6796875 C-17.96697695 68.21012161 -28.86846233 70.44777147 -40.7109375 69.43359375 C-49.27544896 67.64223792 -55.54454392 63.55483896 -60.7109375 56.43359375 C-66.45168057 44.74708107 -65.62722653 32.66034014 -61.78125 20.4921875 C-57.35341085 8.53702179 -49.08334063 0.02047312 -37.68359375 -5.55859375 C-24.98603379 -10.8387672 -10.24513752 -9.3796807 0 0 Z M-40.0234375 15.05859375 C-45.90231834 23.7888119 -47.16983022 34.0949839 -45.7109375 44.43359375 C-43.63269075 48.25208668 -41.55697074 51.30891246 -37.7109375 53.43359375 C-32.61804669 54.28753768 -28.0760293 54.07750498 -23.3984375 51.87109375 C-22.5115625 51.06671875 -21.6246875 50.26234375 -20.7109375 49.43359375 C-19.94330078 48.75683594 -19.94330078 48.75683594 -19.16015625 48.06640625 C-12.91088238 41.83263926 -10.57700943 32.7037944 -10.2734375 24.05859375 C-10.53694181 18.46139866 -12.05528983 14.39967536 -15.7109375 10.05859375 C-19.04709594 7.34796501 -22.30404287 7.07882156 -26.52734375 7.1640625 C-32.26324222 7.87207143 -36.40360458 10.64329137 -40.0234375 15.05859375 Z " fill="#6556FA" transform="translate(1661.7109375,826.56640625)"/>
<path d="M0 0 C3.96858758 3.62679535 5.8740924 7.03032604 6.22070312 12.45263672 C6.49548874 24.97131981 4.71730912 36.83519748 2.5 49.125 C2.1613756 51.06616519 1.82412851 53.00757116 1.48828125 54.94921875 C0.67463935 59.63572867 -0.15733962 64.31862459 -1 69 C-15.82129056 73.41511578 -36.79462498 76.36575001 -51 69 C-55.27194382 65.37813459 -57.73487627 62.4755158 -58.3359375 56.86328125 C-58.43049416 48.2680809 -58.01715974 41.74497456 -52.33984375 35.0390625 C-43.6530746 26.58417836 -32.7128337 25.05610938 -21 25 C-18.25993619 25.17651948 -15.70607987 25.51290562 -13 26 C-11.6100592 23.2201184 -11.81511796 21.0813674 -12 18 C-12.82760956 15.51717131 -13.44135012 14.38381569 -15.59765625 12.90234375 C-18.94806142 11.64389888 -22.16165767 11.7469639 -25.6875 11.8125 C-26.39777344 11.81894531 -27.10804687 11.82539062 -27.83984375 11.83203125 C-32.94755395 11.90659636 -37.93950892 12.2770727 -43 13 C-43 8.38 -43 3.76 -43 -1 C-30.23195717 -6.10721713 -12.01474337 -7.67206504 0 0 Z M-37.0625 42 C-40.19549957 45.23406407 -40.27950056 47.61116985 -40.22265625 52.09375 C-40.13414785 54.12257568 -40.13414785 54.12257568 -38.6875 55.9375 C-35.7954193 57.7584397 -33.31577403 58.12267499 -29.98828125 58.09765625 C-29.23095703 58.09443359 -28.47363281 58.09121094 -27.69335938 58.08789062 C-26.90767578 58.07951172 -26.12199219 58.07113281 -25.3125 58.0625 C-24.51521484 58.05798828 -23.71792969 58.05347656 -22.89648438 58.04882812 C-20.93095743 58.0370585 -18.96546915 58.01912348 -17 58 C-16.46839543 55.58525383 -15.94945234 53.16891893 -15.4375 50.75 C-15.28603516 50.06808594 -15.13457031 49.38617187 -14.97851562 48.68359375 C-14.24766505 45.18230962 -13.67796454 42.39701827 -15 39 C-22.87725476 37.72947504 -30.16831731 37.49767661 -37.0625 42 Z " fill="#6556FA" transform="translate(1807,823)"/>
<path d="M0 0 C0.94963623 -0.02215576 1.89927246 -0.04431152 2.87768555 -0.06713867 C10.19362578 -0.04482815 17.33303253 1.23059525 23.07128906 6.08349609 C28.8577219 12.05723333 29.29496993 18.74829969 29.23873901 26.70556641 C29.05223112 31.185359 28.36151747 35.5502078 27.62890625 39.96875 C27.47590561 40.92648315 27.32290497 41.88421631 27.16526794 42.87097168 C26.84358854 44.87486074 26.51819211 46.87815642 26.18920898 48.88085938 C25.68451381 51.95569321 25.19193088 55.03228913 24.70117188 58.109375 C24.38611576 60.06261289 24.07038503 62.01574211 23.75390625 63.96875 C23.60595108 64.88950317 23.45799591 65.81025635 23.30555725 66.75891113 C23.16548752 67.60739624 23.02541779 68.45588135 22.88110352 69.33007812 C22.75896988 70.07713013 22.63683624 70.82418213 22.51100159 71.59387207 C22.125 73.4375 22.125 73.4375 21.125 75.4375 C15.185 75.4375 9.245 75.4375 3.125 75.4375 C3.558125 72.88 3.99125 70.3225 4.4375 67.6875 C4.85757816 65.15251329 5.27322244 62.61683556 5.68847656 60.08105469 C5.97488854 58.34656426 6.26575594 56.61280244 6.56152344 54.87988281 C9.6173354 38.23200332 9.6173354 38.23200332 9.125 21.4375 C6.88577236 18.54694712 5.60654024 17.59801341 2.125 16.4375 C-0.44765818 16.36720879 -2.99141431 16.34379168 -5.5625 16.375 C-6.26439453 16.37951172 -6.96628906 16.38402344 -7.68945312 16.38867188 C-9.41800538 16.40043073 -11.14651365 16.41836546 -12.875 16.4375 C-13.04104736 17.52466309 -13.20709473 18.61182617 -13.37817383 19.73193359 C-14.00879029 23.85858559 -14.64102126 27.98498903 -15.27368164 32.11132812 C-15.54461351 33.8798179 -15.81513711 35.64837028 -16.08520508 37.41699219 C-17.52105135 46.81817558 -18.97741951 56.21588249 -20.51171875 65.6015625 C-20.63408401 66.36358978 -20.75644928 67.12561707 -20.88252258 67.91073608 C-21.75844525 73.20439051 -21.75844525 73.20439051 -22.875 75.4375 C-28.815 75.4375 -34.755 75.4375 -40.875 75.4375 C-39.73664878 68.21278291 -38.59784002 60.98813827 -37.45826149 53.76361465 C-36.92892896 50.40772023 -36.39978434 47.05179641 -35.87109375 43.69580078 C-35.26091238 39.82316384 -34.65004935 35.95063493 -34.0390625 32.078125 C-33.75925034 30.30082001 -33.75925034 30.30082001 -33.4737854 28.48760986 C-33.11707121 26.22832024 -32.75769464 23.96944896 -32.39532471 21.71105957 C-32.041414 19.48447343 -31.69868645 17.25608718 -31.36590576 15.02624512 C-31.20052307 13.95249634 -31.03514038 12.87874756 -30.86474609 11.77246094 C-30.7218515 10.81660095 -30.57895691 9.86074097 -30.43173218 8.87591553 C-29.875 6.4375 -29.875 6.4375 -27.875 3.4375 C-18.92302796 0.49388808 -9.34945892 0.1172939 0 0 Z " fill="#6556FA" transform="translate(1554.875,818.5625)"/>
<path d="M0 0 C1.5320105 -0.03891357 1.5320105 -0.03891357 3.0949707 -0.07861328 C11.22714459 -0.09839799 17.30619121 1.55470815 23.6875 6.6875 C28.10255374 12.27124443 29.33524852 17.43834778 29.21875 24.4609375 C29.21170044 25.23311615 29.20465088 26.0052948 29.1973877 26.8008728 C28.95301335 36.67775119 27.10701188 46.30997998 25.3125 56 C24.97384237 57.89297602 24.63659537 59.78620497 24.30078125 61.6796875 C23.49004941 66.24854082 22.65090853 70.81080665 21.8125 75.375 C15.8725 75.375 9.9325 75.375 3.8125 75.375 C5.01340995 64.26658297 6.55893914 53.29006957 8.49121094 42.28344727 C10.52873815 31.21487292 10.52873815 31.21487292 8.625 20.375 C5.5297362 16.9595365 2.59265126 16.41542235 -1.95703125 16.1796875 C-3.30482715 16.19283673 -4.65255695 16.2164751 -6 16.25 C-6.69287109 16.25902344 -7.38574219 16.26804687 -8.09960938 16.27734375 C-9.79572395 16.30073843 -11.49165871 16.33660359 -13.1875 16.375 C-13.21908203 16.98601563 -13.25066406 17.59703125 -13.28320312 18.2265625 C-13.94115624 28.06123015 -15.58473268 37.71719772 -17.19873047 47.43212891 C-17.69088104 50.39535719 -18.17607723 53.3596622 -18.66015625 56.32421875 C-18.97095505 58.21621144 -19.28213896 60.10814092 -19.59375 62 C-19.73856812 62.88228271 -19.88338623 63.76456543 -20.03259277 64.67358398 C-20.16943481 65.49544189 -20.30627686 66.3172998 -20.44726562 67.1640625 C-20.56638306 67.88287598 -20.68550049 68.60168945 -20.80822754 69.34228516 C-21.18658252 71.37008277 -21.68719917 73.37379668 -22.1875 75.375 C-28.1275 75.375 -34.0675 75.375 -40.1875 75.375 C-38.59424979 61.79403295 -36.60087754 48.28536527 -34.46606445 34.77929688 C-34.06832072 32.23610275 -33.67981141 29.69144906 -33.30004883 27.14550781 C-32.74634488 23.43964129 -32.16359305 19.73940147 -31.57421875 16.0390625 C-31.40943527 14.89652008 -31.24465179 13.75397766 -31.07487488 12.57681274 C-30.81484428 11.0027919 -30.81484428 11.0027919 -30.54956055 9.39697266 C-30.3354377 8.01041977 -30.3354377 8.01041977 -30.11698914 6.59585571 C-29.1875 4.375 -29.1875 4.375 -26.74421692 3.10067749 C-17.86110642 0.57936851 -9.19953644 0.12453551 0 0 Z " fill="#6556FA" transform="translate(2228.1875,818.625)"/>
<path d="M0 0 C0.94963623 -0.0220752 1.89927246 -0.04415039 2.87768555 -0.06689453 C9.9438745 -0.04596132 17.27556743 1.07222638 22.78076172 5.88500977 C28.51969594 12.5130306 29.00703424 18.91593374 29.125 27.4375 C28.80707278 31.8187082 28.16240813 36.10684275 27.4375 40.4375 C27.25541992 41.59290283 27.07333984 42.74830566 26.88574219 43.9387207 C25.19434007 54.48387312 23.20507743 64.96282438 21.125 75.4375 C15.185 75.4375 9.245 75.4375 3.125 75.4375 C3.74860611 71.18729136 4.37384893 66.93733384 5 62.6875 C5.17402344 61.50027344 5.34804687 60.31304688 5.52734375 59.08984375 C6.3690096 53.38521968 7.24573767 47.69538902 8.2421875 42.015625 C8.98791757 37.59130345 9.3955747 33.42278375 9.375 28.9375 C9.38015625 27.7928125 9.3853125 26.648125 9.390625 25.46875 C9.13322983 22.53141691 8.74484141 20.87010395 7.125 18.4375 C1.14236709 14.81166187 -6.33946783 16.31550822 -12.875 17.4375 C-12.98553207 18.11988235 -13.09606415 18.80226471 -13.20994568 19.50532532 C-14.35873927 26.59445083 -15.51099562 33.68300725 -16.6652832 40.77124023 C-17.09614366 43.41818672 -17.52576675 46.06532966 -17.9543457 48.71264648 C-18.57010035 52.51324079 -19.18902972 56.31330633 -19.80859375 60.11328125 C-20.00029648 61.30085526 -20.19199921 62.48842926 -20.38951111 63.71199036 C-20.65967796 65.3633625 -20.65967796 65.3633625 -20.93530273 67.0480957 C-21.09296616 68.01850296 -21.25062958 68.98891022 -21.41307068 69.98872375 C-21.875 72.4375 -21.875 72.4375 -22.875 75.4375 C-28.815 75.4375 -34.755 75.4375 -40.875 75.4375 C-39.29652689 65.10419664 -37.71171562 54.77193541 -36.11251831 44.44181824 C-35.44893482 40.15510165 -34.78708667 35.86815178 -34.13232422 31.58007812 C-33.57529277 27.93341863 -33.01052297 24.288048 -32.43930054 20.64358521 C-32.2302041 19.30066999 -32.02399389 17.95730213 -31.82070923 16.61349487 C-31.53914097 14.75548107 -31.24643291 12.89916552 -30.953125 11.04296875 C-30.79231445 10.00293701 -30.63150391 8.96290527 -30.46582031 7.89135742 C-29.875 5.4375 -29.875 5.4375 -27.875 3.4375 C-18.76141179 0.74905314 -9.45422958 0.11172137 0 0 Z " fill="#6556FA" transform="translate(1135.875,818.5625)"/>
<path d="M0 0 C25.74 0 51.48 0 78 0 C76 15 76 15 75 16 C60.645 16.495 60.645 16.495 46 17 C41.71 43.4 37.42 69.8 33 97 C26.73 97 20.46 97 14 97 C14.69356058 87.9567733 16.00882082 79.06540994 17.46875 70.12109375 C17.71178411 68.61706798 17.95457766 67.11300333 18.19714355 65.60890198 C18.70239977 62.48129927 19.21031177 59.3541433 19.72021484 56.22729492 C20.37407024 52.21652399 21.02148918 48.20474494 21.66701508 44.192626 C22.16558381 41.09795466 22.66732397 38.00380417 23.1700592 34.90980721 C23.41022305 33.42954807 23.64943513 31.94913418 23.88768005 30.46856499 C24.21944353 28.41006597 24.55542425 26.35229976 24.89257812 24.29467773 C25.08275513 23.12428452 25.27293213 21.9538913 25.46887207 20.74803162 C26 18 26 18 27 16 C17.1 16 7.2 16 -3 16 C-1 2 -1 2 0 0 Z " fill="#6556FA" transform="translate(1966,797)"/>
<path d="M0 0 C25.74 0 51.48 0 78 0 C77 11 77 11 76 16 C66.1 16 56.2 16 46 16 C45.60039063 18.86558594 45.20078125 21.73117187 44.7890625 24.68359375 C43.00950761 37.24384676 41.00442047 49.76698905 38.98339844 62.2902832 C38.36643292 66.11561799 37.75337061 69.94156536 37.140625 73.76757812 C36.74762498 76.21097437 36.35440427 78.65433513 35.9609375 81.09765625 C35.77864594 82.23606461 35.59635437 83.37447296 35.40853882 84.54737854 C35.23811066 85.600457 35.0676825 86.65353546 34.89208984 87.73852539 C34.66916763 89.12244225 34.66916763 89.12244225 34.44174194 90.53431702 C34.05233704 92.70786891 33.53555711 94.85777158 33 97 C26.73 97 20.46 97 14 97 C16.06369431 81.30260907 18.43756539 65.68203914 21.01660156 50.06152344 C21.6344662 46.31764057 22.24722217 42.57294563 22.859375 38.828125 C23.25231068 36.43484763 23.64552891 34.04161663 24.0390625 31.6484375 C24.22135406 30.53503998 24.40364563 29.42164246 24.59146118 28.27450562 C24.76188934 27.2446756 24.9323175 26.21484558 25.10791016 25.15380859 C25.25652496 24.25197845 25.40513977 23.35014832 25.55825806 22.42098999 C25.95201243 20.26299839 26.46796892 18.12812433 27 16 C17.43 16 7.86 16 -2 16 C-1 4 -1 4 0 0 Z " fill="#6556FA" transform="translate(863,797)"/>
<path d="M0 0 C6.27 0 12.54 0 19 0 C16.31074474 18.60315507 13.372672 37.15248212 10.25 55.6875 C9.83440229 58.16597655 9.41903687 60.64449205 9.00390625 63.12304688 C8.0056835 69.08255598 7.0027675 75.04124699 6 81 C20.19 81 34.38 81 49 81 C48.34 86.28 47.68 91.56 47 97 C26.54 97 6.08 97 -15 97 C-13.85117953 82.06533385 -13.85117953 82.06533385 -12.60131836 74.81323242 C-12.46462234 73.99203415 -12.32792633 73.17083588 -12.18708801 72.32475281 C-11.74339484 69.66738845 -11.29172703 67.01145144 -10.83984375 64.35546875 C-10.52689015 62.49083183 -10.21444468 60.62610957 -9.90248108 58.76130676 C-9.08719065 53.8960617 -8.26508457 49.03199324 -7.44146729 44.16815186 C-6.59937036 39.18767428 -5.76384379 34.20609496 -4.92773438 29.22460938 C-3.29152 19.48199172 -1.64748349 9.74071838 0 0 Z " fill="#6556FA" transform="translate(999,797)"/>
<path d="M0 0 C-1.66666667 5 -3.33333333 10 -5 15 C-5.845625 14.7834375 -6.69125 14.566875 -7.5625 14.34375 C-18.72907308 11.4792783 -18.72907308 11.4792783 -29.9375 13.125 C-33.24528153 14.71845356 -33.24528153 14.71845356 -34.125 18 C-34.29780686 20.94080203 -34.29780686 20.94080203 -32.75708008 22.56152344 C-30.82900201 24.13999168 -29.05159224 25.03812174 -26.76171875 26.015625 C-25.94123047 26.38042969 -25.12074219 26.74523437 -24.27539062 27.12109375 C-22.56567901 27.86691512 -20.85216054 28.60407656 -19.13476562 29.33203125 C-12.77895955 32.18444148 -8.1696553 35.66068939 -5 42 C-4.45041434 48.86982077 -4.10300402 56.049349 -8 62 C-14.82304776 69.81189526 -21.96836728 72.57926384 -32 74 C-41.9444694 74.59233953 -52.8750568 74.5624716 -62 70 C-61.43174347 64.45949887 -59.37113483 59.96284034 -57 55 C-56.40832031 55.13277344 -55.81664062 55.26554688 -55.20703125 55.40234375 C-54.41683594 55.57894531 -53.62664062 55.75554688 -52.8125 55.9375 C-52.03519531 56.11152344 -51.25789063 56.28554688 -50.45703125 56.46484375 C-49.64621094 56.64144531 -48.83539062 56.81804688 -48 57 C-47.19949219 57.18304687 -46.39898438 57.36609375 -45.57421875 57.5546875 C-42.68019198 58.05532339 -39.936494 58.16877236 -37 58.1875 C-35.989375 58.20167969 -34.97875 58.21585938 -33.9375 58.23046875 C-29.75688292 57.90246821 -26.97666171 56.97666171 -24 54 C-23.41597867 51.58582128 -23.41597867 51.58582128 -24 49 C-28.49786775 44.66904531 -33.99185967 42.61089552 -39.67382812 40.26367188 C-45.68790463 37.60678652 -50.01964715 33.96070569 -53 28 C-53.84989931 19.20681096 -52.37777415 12.63670911 -46.8125 5.75 C-35.57315104 -6.16698123 -14.3502164 -6.61455287 0 0 Z " fill="#6556FA" transform="translate(1882,822)"/>
<path d="M0 0 C3.14581423 -0.02888514 6.29159469 -0.04675923 9.4375 -0.0625 C10.33533203 -0.07087891 11.23316406 -0.07925781 12.15820312 -0.08789062 C13.01220703 -0.09111328 13.86621094 -0.09433594 14.74609375 -0.09765625 C15.93223267 -0.10551147 15.93223267 -0.10551147 17.14233398 -0.11352539 C19 0 19 0 20 1 C20.3238693 3.07530296 20.58978402 5.15968776 20.83203125 7.24609375 C21.06744629 9.20373657 21.06744629 9.20373657 21.30761719 11.20092773 C21.38991577 11.89370819 21.47221436 12.58648865 21.55700684 13.30026245 C23.04003719 25.70602747 24.87588342 37.88573942 28 50 C36.23233782 34.43813384 44.15103949 18.85259196 51.19067383 2.70458984 C52 1 52 1 53 0 C54.34267413 -0.08631874 55.68974322 -0.10706473 57.03515625 -0.09765625 C57.84404297 -0.09443359 58.65292969 -0.09121094 59.48632812 -0.08789062 C60.33646484 -0.07951172 61.18660156 -0.07113281 62.0625 -0.0625 C62.91650391 -0.05798828 63.77050781 -0.05347656 64.65039062 -0.04882812 C66.76695663 -0.03700373 68.88348685 -0.01906769 71 0 C68.59128289 8.1195664 64.99108501 15.52615914 61.1875 23.0625 C60.86007812 23.71529938 60.53265625 24.36809875 60.1953125 25.04067993 C54.14638281 37.07754447 47.69336826 48.85953638 40.61547852 60.32836914 C39.47175654 62.21982291 38.38344197 64.14529475 37.33569336 66.09155273 C33.15065068 73.51474463 33.15065068 73.51474463 29.94775391 74.86547852 C27.71713301 75.08394139 25.78280404 74.97798809 23.5625 74.6875 C22.83095703 74.63787109 22.09941406 74.58824219 21.34570312 74.53710938 C19.55944093 74.4086853 17.77835742 74.2113534 16 74 C8.33829648 51.25219884 0 24.29203224 0 0 Z " fill="#6556FA" transform="translate(1680,820)"/>
<path d="M0 0 C-0.47360211 3.29249253 -0.95482447 6.58382638 -1.4375 9.875 C-1.57220703 10.81214844 -1.70691406 11.74929688 -1.84570312 12.71484375 C-1.97783203 13.61074219 -2.10996094 14.50664063 -2.24609375 15.4296875 C-2.36654053 16.25710449 -2.4869873 17.08452148 -2.61108398 17.93701172 C-3 20 -3 20 -4 22 C4.58 22 13.16 22 22 22 C21.34 26.95 20.68 31.9 20 37 C11.42 37.33 2.84 37.66 -6 38 C-6.7408977 42.40949496 -7.47461401 46.81906075 -8.19116211 51.23242188 C-8.43648409 52.73048273 -8.68576083 54.22790192 -8.93920898 55.72460938 C-9.30477405 57.88771627 -9.65561152 60.05280336 -10.00390625 62.21875 C-10.21861572 63.51748047 -10.4333252 64.81621094 -10.65454102 66.15429688 C-11.07488035 70.83357973 -11.31209963 75.84289122 -8.79296875 79.984375 C-6.22630602 81.43825803 -4.24638325 81.32513145 -1.3125 81.25 C-0.25160156 81.22421875 0.80929687 81.1984375 1.90234375 81.171875 C5.64883101 80.96399929 9.29210123 80.57044596 13 80 C13 84.62 13 89.24 13 94 C1.93144037 97.85722533 -8.59145189 99.80284937 -20 96 C-24.92750769 93.35374587 -27.87223823 90.61218168 -29.56091309 85.20341492 C-31.60417886 74.94994996 -29.3409407 64.2193499 -27.59375 54.07421875 C-27.34621036 52.59079501 -27.09960495 51.1072151 -26.85388184 49.62348938 C-26.21211665 45.76362843 -25.55788686 41.90598712 -24.90081787 38.04870605 C-24.22955342 34.09430731 -23.5704032 30.13789103 -22.91015625 26.18164062 C-21.6184548 18.4524308 -20.31354614 10.72553084 -19 3 C-16.39643759 2.49666458 -13.79223349 1.99720622 -11.1875 1.5 C-10.44951172 1.35691406 -9.71152344 1.21382812 -8.95117188 1.06640625 C-5.92205609 0.49073719 -3.090804 0 0 0 Z " fill="#6556FA" transform="translate(1416,798)"/>
<path d="M0 0 C-1.65528338 12.13959755 -3.49515116 24.24197293 -5.48046875 36.33203125 C-5.70193031 37.68398788 -5.92337593 39.03594713 -6.14480591 40.38790894 C-7.05616636 45.94628048 -7.96988438 51.50424801 -8.89233398 57.06079102 C-9.46536261 60.5141128 -10.03213753 63.96841321 -10.5949955 67.4234066 C-10.90949724 69.34282915 -11.23080115 71.26113326 -11.55229187 73.17939758 C-13.78799092 83.29096126 -13.78799092 83.29096126 -11.8125 92.9375 C-9.57501375 94.24912987 -7.55687669 94.65447612 -5 95 C-5.56820748 100.45479185 -6.94637945 104.91059256 -9 110 C-15.44122183 110.35637908 -21.32686427 110.40388144 -27 107 C-29.89060743 104.36825294 -31.75141404 101.74575787 -33 98 C-33.22790951 92.20486505 -32.66695358 86.81296396 -31.71484375 81.10546875 C-31.57829376 80.2557399 -31.44174377 79.40601105 -31.30105591 78.53053284 C-30.8524858 75.74852131 -30.39506811 72.96804446 -29.9375 70.1875 C-29.6230674 68.24846136 -29.30919223 66.30933226 -28.99584961 64.37011719 C-28.17283402 59.28609172 -27.34228642 54.20332504 -26.51013184 49.12078857 C-25.66103126 43.92632083 -24.81910461 38.73069105 -23.9765625 33.53515625 C-22.32470331 23.35562477 -20.6648798 13.17740945 -19 3 C-16.58424393 2.49521515 -14.16755639 1.99602358 -11.75 1.5 C-11.06808594 1.35691406 -10.38617187 1.21382812 -9.68359375 1.06640625 C-6.35366879 0.38748951 -3.41667449 0 0 0 Z " fill="#6556FA" transform="translate(2388,785)"/>
<path d="M0 0 C6.27 0 12.54 0 19 0 C15.72486543 21.69295012 12.32805382 43.36428659 8.7963562 65.01705933 C8.39019529 67.50726077 7.98486182 69.99759732 7.58035278 72.48806763 C7.00810501 76.00811987 6.43237665 79.52758388 5.85546875 83.046875 C5.68278473 84.11080978 5.51010071 85.17474457 5.33218384 86.2709198 C5.17124237 87.24724869 5.0103009 88.22357758 4.84448242 89.22949219 C4.70491623 90.08226746 4.56535004 90.93504272 4.42155457 91.81365967 C4 94 4 94 3 97 C-3.27 97 -9.54 97 -16 97 C-14.06334969 84.94309257 -12.12523753 72.88642264 -10.18454075 60.83016586 C-9.28348606 55.23213918 -8.38307598 49.63401039 -7.48413086 44.03564453 C-6.61680273 38.63433066 -5.74779209 33.23328997 -4.87760735 27.83243561 C-4.54568305 25.77043576 -4.2143682 23.70833772 -3.8836689 21.64614105 C-3.42087842 18.76090309 -2.95593496 15.87601984 -2.49047852 12.99121094 C-2.28547981 11.70835457 -2.28547981 11.70835457 -2.07633972 10.39958191 C-1.94875275 9.61156693 -1.82116577 8.82355194 -1.68971252 8.01165771 C-1.52517248 6.9884675 -1.52517248 6.9884675 -1.35730839 5.94460678 C-0.98999363 3.94554159 -0.49296115 1.97184459 0 0 Z " fill="#6556FA" transform="translate(1490,797)"/>
<path d="M0 0 C5.94 0 11.88 0 18 0 C17.3701968 8.92891512 16.21365632 17.65268652 14.75 26.48046875 C14.52932909 27.82850935 14.30895718 29.17659893 14.08886719 30.5247345 C13.63127057 33.32111321 13.17039779 36.11692527 12.70703125 38.91235352 C12.11252182 42.5003783 11.52602323 46.08965988 10.9418335 49.67937756 C10.49016133 52.44984559 10.0345793 55.21965926 9.57775879 57.98928261 C9.25382934 59.95720493 8.93304804 61.92564462 8.61230469 63.89408875 C8.31694824 65.6677758 8.31694824 65.6677758 8.015625 67.47729492 C7.84321289 68.5225383 7.67080078 69.56778168 7.49316406 70.6446991 C7 73 7 73 6 74 C3.13732433 74.07325168 0.299281 74.09238205 -2.5625 74.0625 C-3.36880859 74.05798828 -4.17511719 74.05347656 -5.00585938 74.04882812 C-7.00393756 74.03700518 -9.00197783 74.01906914 -11 74 C-10.44647319 64.68206471 -9.2655518 55.58746467 -7.71484375 46.38671875 C-7.49158358 45.03774428 -7.26881996 43.68868754 -7.04652405 42.33955383 C-6.46783678 38.83556449 -5.88253635 35.33271317 -5.29571533 31.83007812 C-4.69499383 28.23700813 -4.10072143 24.64287197 -3.50585938 21.04882812 C-2.34344736 14.03151061 -1.17342887 7.01548502 0 0 Z " fill="#6556FA" transform="translate(1900,820)"/>
<path d="M0 0 C5.94 0 11.88 0 18 0 C15.98155146 14.46554786 13.7780333 28.88723746 11.41064453 43.29956055 C10.86591227 46.61785891 10.32534665 49.93681891 9.78515625 53.25585938 C9.43774206 55.38024793 9.0900949 57.50459841 8.7421875 59.62890625 C8.58176971 60.61419815 8.42135193 61.59949005 8.256073 62.61463928 C8.10566559 63.52757248 7.95525818 64.44050568 7.80029297 65.38110352 C7.66944305 66.1793605 7.53859314 66.97761749 7.40377808 67.80006409 C7.02125273 69.88420706 6.51392249 71.94431003 6 74 C0.06 74 -5.88 74 -12 74 C-10.05753207 59.14577889 -7.84348387 44.35174954 -5.41064453 29.57006836 C-4.86469776 26.24984604 -4.32468401 22.92869272 -3.78515625 19.60742188 C-3.43784447 17.48431862 -3.09020137 15.36126953 -2.7421875 13.23828125 C-2.50156082 11.75730705 -2.50156082 11.75730705 -2.256073 10.24641418 C-2.10566559 9.33663315 -1.95525818 8.42685211 -1.80029297 7.48950195 C-1.66944305 6.69204056 -1.53859314 5.89457916 -1.40377808 5.07295227 C-1 3 -1 3 0 0 Z " fill="#6556FA" transform="translate(1069,820)"/>
<path d="M0 0 C5.94 0 11.88 0 18 0 C16.88006988 7.13854487 15.75872824 14.27686485 14.63507366 21.41482449 C14.11305693 24.73125343 13.59177289 28.04779351 13.0715332 31.36450195 C10.83817988 45.60044966 8.57268697 59.82108122 6 74 C0.06 74 -5.88 74 -12 74 C-11.33354013 65.46324666 -10.14804211 57.09783342 -8.75 48.65234375 C-8.5293755 47.30526197 -8.30900259 45.95813897 -8.08886719 44.61097717 C-7.63075448 41.81290637 -7.16992472 39.01530135 -6.70703125 36.21801758 C-6.11364168 32.63100635 -5.52677682 29.04296308 -4.9418335 25.454566 C-4.48958228 22.68415184 -4.03416906 19.91426489 -3.57775879 17.14453316 C-3.25426217 15.17825013 -2.93326664 13.21155615 -2.61230469 11.24485779 C-2.41540039 10.05924759 -2.21849609 8.87363739 -2.015625 7.65209961 C-1.84321289 6.60606064 -1.67080078 5.56002167 -1.49316406 4.48228455 C-1 2 -1 2 0 0 Z " fill="#6556FA" transform="translate(2571,820)"/>
<path d="M0 0 C5.94 0 11.88 0 18 0 C14.27061971 24.71706301 10.31529609 49.37832833 6 74 C0.06 74 -5.88 74 -12 74 C-10.51368533 60.02214459 -8.34895544 46.19593287 -6.05883789 32.32885742 C-5.43031232 28.51893053 -4.80952512 24.70779527 -4.18945312 20.89648438 C-3.79212054 18.47388385 -3.39435062 16.051355 -2.99609375 13.62890625 C-2.81066513 12.48950089 -2.62523651 11.35009552 -2.43418884 10.17616272 C-2.26053299 9.13004318 -2.08687714 8.08392365 -1.90795898 7.00610352 C-1.75632797 6.08475113 -1.60469696 5.16339874 -1.44847107 4.21412659 C-1 2 -1 2 0 0 Z " fill="#6556FA" transform="translate(1357,820)"/>
<path d="M0 0 C2.625 2 2.625 2 4 5 C4.62391938 9.91336509 4.53263057 11.9727839 2.25 16.375 C-0.35206171 19.41073866 -2.24230441 20.70128608 -6.18359375 21.37109375 C-10.42183005 21.4959638 -12.4510726 21.3696858 -16.0625 18.9375 C-18.5068907 15.2314883 -18.61341941 13.3706133 -18 9 C-16.75588046 5.59504127 -15.61690397 3.56082179 -12.9375 1.125 C-8.59628145 -0.53759434 -4.58206715 -0.80360031 0 0 Z " fill="#6556FA" transform="translate(1376,789)"/>
<path d="M0 0 C3.0625 2.0625 3.0625 2.0625 5 5 C5.75210332 10.17071032 4.86528874 13.65266535 2 18 C-1.61377496 21.18862497 -5.16943402 21.59337827 -9.83984375 21.40625 C-12 21 -12 21 -15.0625 19 C-17.47980201 15.25708076 -17.91380252 12.28397329 -17 8 C-13.15993367 0.5941578 -8.06476287 -1.37761074 0 0 Z " fill="#6556FA" transform="translate(2589,789)"/>
<path d="M0 0 C0.845625 -0.00773438 1.69125 -0.01546875 2.5625 -0.0234375 C5.51679218 0.45947564 6.87218549 1.28526718 9 3.375 C10.11383788 7.9046074 10.39884934 10.22276858 8.875 14.625 C6.74938457 17.7425693 5.30068003 19.50939824 2 21.375 C-2.50013487 22.17684221 -5.91869583 21.88255094 -10.0625 19.9375 C-12.53402471 16.66870926 -12.59665419 14.57256678 -12.359375 10.55859375 C-11.71666192 6.65341317 -10.10358643 4.36342958 -7.203125 1.765625 C-4.5886127 0.11533 -3.06814693 -0.02806232 0 0 Z " fill="#6556FA" transform="translate(1914,788.625)"/>
<path d="M0 0 C2.625 1.4375 2.625 1.4375 4 4 C4.85117846 8.77203246 4.45638373 12.10353196 2.25 16.4375 C-0.37082779 19.42233165 -2.28187428 20.73986125 -6.21875 21.3359375 C-12.41071429 21.44196429 -12.41071429 21.44196429 -15.5 19.125 C-18.2536286 15.22402615 -18.14295619 12.90617729 -17.58203125 8.26171875 C-16.69415838 4.8115282 -14.74795607 3.1447462 -12 1 C-8.29135694 -0.85432153 -4.04832596 -0.44400994 0 0 Z " fill="#6556FA" transform="translate(1088,789)"/>
</svg>
